<mxfile host="app.diagrams.net" agent="Mozilla/5.0 (Windows NT 10.0; Win64; x64) AppleWebKit/537.36 (KHTML, like Gecko) Chrome/127.0.0.0 Safari/537.36" version="24.7.7">
  <diagram name="Page-1" id="IcD0t0GPi7tHdWaCXpq_">
    <mxGraphModel dx="1969" dy="878" grid="1" gridSize="10" guides="1" tooltips="1" connect="1" arrows="1" fold="1" page="1" pageScale="1" pageWidth="850" pageHeight="1100" math="0" shadow="0">
      <root>
        <mxCell id="0" />
        <mxCell id="1" parent="0" />
        <mxCell id="1afQDspEj4p5PpRKa2CH-24" style="edgeStyle=orthogonalEdgeStyle;rounded=0;orthogonalLoop=1;jettySize=auto;html=1;" parent="1" source="1afQDspEj4p5PpRKa2CH-3" target="1afQDspEj4p5PpRKa2CH-23" edge="1">
          <mxGeometry relative="1" as="geometry" />
        </mxCell>
        <mxCell id="1afQDspEj4p5PpRKa2CH-3" value="Amazon Athena" style="sketch=0;outlineConnect=0;fontColor=#232F3E;gradientColor=none;strokeColor=#ffffff;fillColor=#232F3E;dashed=0;verticalLabelPosition=middle;verticalAlign=bottom;align=center;html=1;whiteSpace=wrap;fontSize=10;fontStyle=1;spacing=3;shape=mxgraph.aws4.productIcon;prIcon=mxgraph.aws4.athena;" parent="1" vertex="1">
          <mxGeometry x="480" y="90" width="80" height="110" as="geometry" />
        </mxCell>
        <mxCell id="1afQDspEj4p5PpRKa2CH-6" style="edgeStyle=orthogonalEdgeStyle;rounded=0;orthogonalLoop=1;jettySize=auto;html=1;" parent="1" source="1afQDspEj4p5PpRKa2CH-4" target="1afQDspEj4p5PpRKa2CH-3" edge="1">
          <mxGeometry relative="1" as="geometry" />
        </mxCell>
        <mxCell id="1afQDspEj4p5PpRKa2CH-4" value="Amazon CloudWatch logs" style="sketch=0;outlineConnect=0;fontColor=#232F3E;gradientColor=none;strokeColor=#ffffff;fillColor=#232F3E;dashed=0;verticalLabelPosition=middle;verticalAlign=bottom;align=center;html=1;whiteSpace=wrap;fontSize=10;fontStyle=1;spacing=3;shape=mxgraph.aws4.productIcon;prIcon=mxgraph.aws4.cloudwatch;" parent="1" vertex="1">
          <mxGeometry x="60" y="90" width="80" height="110" as="geometry" />
        </mxCell>
        <mxCell id="1afQDspEj4p5PpRKa2CH-8" value="Create Athena CloudWatch Connector to get data tables" style="text;html=1;align=center;verticalAlign=middle;whiteSpace=wrap;rounded=0;" parent="1" vertex="1">
          <mxGeometry x="240" y="110" width="180" height="20" as="geometry" />
        </mxCell>
        <mxCell id="1afQDspEj4p5PpRKa2CH-9" value="" style="shape=image;verticalLabelPosition=bottom;labelBackgroundColor=default;verticalAlign=top;aspect=fixed;imageAspect=0;image=data:image/png,iVBORw0KGgoAAAANSUhEUgAAAUAAAAGHCAYAAADBfYumAAAAAXNSR0IArs4c6QAAAARnQU1BAACxjwv8YQUAAAAJcEhZcwAADsMAAA7DAcdvqGQAAFVsSURBVHhe7d0JXMz5/wfwlxWTa4ZorCihsCpHaa3KUWIld2yuxVpXdh35s6s9rHVsFj85drGsHIvVEkKbJbmSsxyVReVoipooMzYaov/n+51vp066+L6f+/juzPfzvT7z1bzm8/l+vzPfKurHjzNACCEi9J7wSAghokMBSAgRLQpAQohoUQASQkSLApAQIlr5ngXOyMiA5tkzNrWKUEIIIe+efAPwxYsXuBMXD7OWpkIJIYRUbpm51aKpkVBStAK7wC9fpAvPCCHk7ZCeXrLcomOAhBDRogAkhIgWBSAhRLQoAAkhokUBSAgRLQpAQohoUQASQkSLApAQIloUgIQQ0aIAJISIFgUgIUS0KAAJIaJFAUgIES0KQEKIaFEAEkJEiwKQECJaFICEENGiACSEiFaB9wS5dfcuLD74QCghhLxtnj17Dv9DgYi+dRt3FfFQqx+jvl49GDc1hEM3O1iYtUZg0El4/7ETEz4bCfuutsKSZScu/j6iYm6Vyba43Iq+cxetWjQXSopWdi3AhAOY0NQUTfIMlr1mYtU/MVAJs5VIcgxOh5xBRIJGKCCE5Cfy3xv4P4952LX3AC5dicDz589h1KQxVGo1zl0Ig+eyVVi55ncWGi+FJcpe/L37WPCzFzZs2o579xOF0opVDl1gfZjYdIZtFza00ofyxgEsmdgbo1deQkljTBm8HK7DR2PlebVQQgjJ69/rUVi0ZCWSUx7B0b4Lli76Hr+tWoKFP3yNjWuW45vZ09CMtQK5IAw8fkpYqmxxgbfg5xV4/Pg/jB87EgaNGgpTKlY5BGAHzPDaCp9tbDgcgjDvz2HOSkOXf4GVIbkjUKOOQwRr4XGtvNPX4qDJc4OnqOuHtU9S1fwnmUqdvXxRyxIiBhqNBms2bEaVKlXw/Rx3jBs9HI0NGglTtW5ExaCthRnq1pXxrbKylqhMwvzFy/kuOBd+Dt3KvqtdXOV+EkTeYwqmD+WeJWHViTChFZiEgFk2aGFhj96shce18lyd7NHC4RsEJHDTL2EV6z67/srPjIA5vWFmYQWzOYehLHJZQsTjzPlQPExOwaB+Tmjd0kQozc13nz/8Dh7Co0evdSCqRLjw+/Gn5Vktv8oUfpwKOAsshblVZ+1TxYOsY4HVWw/FsvWslfgnN/yKr+xZ4d1d2Hwsjj3Rh5nHFAxsw88K88FT8L3HHHxv3wQSNl74soSIx82oW/xjT4eu/GN+XAY6vzIYl+Bm4sWVGX5cb23y+NGVLvw4FRCAgKRWHe2TCCVrwXH00WO8O4Z93Bm23PFCm14YNrgXP+U024lAE/SYPAqOzfgiGNqPwqTJn2PS0A6QFbksIeJxMzoGtWrWhEwmFUpy47rGLgNY6OUZuGOCpYkLv3k//Q+PVCr+DHMXm07ClMqlQgJQqRRaZuZyyLXPAHUMAlZ+A9dRrAs76hssKUnr7U2WJeQdkpKiglQqNDCK4fSZC/yZ2Rs3Y4SS0nHuwiWoVGo+jI2NSjdcS1MFBGAcIoKv8c/krZpoA1BzDavG9MaE5WcgNesGB7sW2cFYlDdZlpB3TJMmBkhIVCI9vXhnAS9djeDPGkultYWS0tHfuRecejkg9ckT/uzv3djK2Sgp5wBUI/rP5ayFxj3vgEk9O/CliDyOJWHs8eOZmOvBurasezvWvol2Wj7UqTnOHpdwWULeZU0NGyMjIwNHjwcLJQXjuqdhl69CUr06Gr1f+pelfDp8CB+CT58+xfzFXpUyBMshAC9hhTvXNR2N7tZW6D7nAJTQh+1XHhgrnNSAroS/NAaXjuHosTM4/c82LNkkXPKSRR8mZvr8s9PLx+NLz8WYteA4lMValhBx6OnQDTo6OvDx9eMDrjCb/vBBWpqGD6mywoWgo0PXShuC5RCASYjmrs07dQbRyiawch6FhX/6weeLDvwZXF6b/pg9vjPkygP4biwLy0VnYOo46pWurPmAnzDJhoWgMgb71m1EkOpZsZclRAwMWRd4+NCBfLBxJyHuKl4NHM2zZ1j3+1ZcCL3Mfy3OZWBfYUrZGPfpsFwhGHP7rjCl4lWq7wJr1GqksUddqTQ7HPPDXQitI4Usx0zFXpYQEdi99yD2HTyEKlWAtuZmaFC/HmrWrMmfnY2KvsVfK8hdJ/jlpM+gp1dPWKpsbfpjJ44EnUQNXV0smPt1qX8b5HW+C0w/hkDIO4pr/W3dsQvXb0TzxwUzcT+I0N/5Y/5rctxlMeVpvfc2xN9PwNw57qhatapQWjooAAkhr3jy5Cn/4whcq4/7BZi8X40rT1wQP32axlqjNYSS0kMBSAgRrdcJwAq5EJoQQioDCkBCiGhRABJCRIsCkBAiWnQShBDyTsg8CdJQrv3GWHFQC5AQIloUgISQd4pu9erFHigACSGiRQFICBEtCkBCiGhRABJCRIsCkBAiWhSAhBDRogAkhIgWBSAhRLQoAAkhokUBSAgRLQpAQohoUQASQkSLApAQIlqF/h6gYZMmQgkhhFRufG7FKmDRqqVQUrRCA9CybVuhhBBCKjcut6Ju30Hj94t/w3XqAhNCRIsCkBAiWhSAhBDRogAkhIgWBSAhRLQoAAkhokUBSAgRLQpAQohoUQASQkSLApAQIloUgIQQ0Sq7AAz9BQ0NjLMHm8Fw9zqEqFRhehE0ijCE39cIY4QQUvrKuAU4C/737iCRDbEHF8D69vcY7OGHWGFqYcJ3D4bXObUwRgghpa/cusASPTOM8FwJl5MLsf0017JTI3zfVnh6TIbLsBFwX+iDi8ncnGpEBfnhYCgQG7QFa9dswI5QNTT3Q7BjzSK4s3ldJs3F2oBo5Ns+VEfD3+vrPOtk0pMQ7CMs7/4L/K9nhqsaF32028ikCvXBWp8wqITn3qcVUF0/BO81bH38bNq6z3PntrEVgXeEmuTcNtfapfwmpFIr32OAtUxh3TUJF+8o2YiK/WeIvlOWwHvVfDhW9YHz0mN86EAigSQdkBmaw6KdGSwMJEi7p4Gskys81q+D10QTXPWYDu9Ibuac1Aj0dISv3misZfO5D5JDwmdTEvxn9oFnuAlGLmXLj5Li4LCxWHGFm6hhQbsIgYrsONUojmFekIIPWO65x+K5mLclQghctq5pPTBirxrWQ76Ei70J6nJTNJFYMfIrBDfjtr0S4+QBGDzFp1itXUJIxSjnkyD6aNgMCFYmseeGsBtoDwtDKWRyEzj3cgCSWUsPUpjaWqGVjAWgqRXsbG1g0UgCmZU9nK1MIJdKYWTlhJ6dIqFJ0641mwZq1uKTyeTa+czY+hux4jtB8N7tBPevXNGRbc/IajQ8ZuvCc2eINnCLYjAQHp6z4DaFLZ/MrcsBi72+hDOrG1e/jsZSaM7tg6fBGLgPNGPb1ofFEFe4BIUgnMt6QkilVM4BmITE24CdXJ891yAq4Bdtl5TrMq5nfd7CJIfBW+guu0xaCN9bQnku+nCeNh9pq/rAwmE6VrBuMh9wD1n3F3LUlfIz8YxMLYGL0SVvofHrMkRDPWFcoEpWAOFb4Ca8Hpcxy+APGSS6wgyEkEqnfAMwNQoXTuqjS2tDIHIr3JanwWXNDvju3IHFI82EmfKjhv+CwQhu/y12sHl9f50FZyNhUh4SM9YFDbqA4PUDgZ3DMcI7GtABi7/czUVlIgus5nIU/7djc3ql6anVZ5a2fvywBxfusa59jtAlhFQu5RaA3GUt3h7T4dv1Owy2Yi2mewqE1zeEkdCSSkvNfcZAImHzqDI7qArERrBWWyM5WDHwQs3m5ye8Kl37IDOxx+B+VriYyPqgrS0xQn4MR05nbkOB4IN+6NiJdVdZl1vO8jj2XmZfVYNE1hUvkLklZsh9sHE3C9Ac5O3t4bjbB/45i4W6EEIqpzIOwGVwFq4DNHJdiPDWK3F0+QBwjTeZzUB4vFgGl36su9jvM3hFS2CnXYjRh93A0Yj1cOSXdTsgZ11bV/hPc2bdy8HseQjULLReFYm1vbrAbihb51BHOC+XwXuUDUtTG8zc7oqo2W1hzbbnbDMY2xttwtpxJmwZCaydZkGycCy/nHO/rxCcasKCsQD8uqZCs7yLcI2jNdwDkgBjV3gulWN7P+us7Vv32oBwYTFCSOVT4TdF0qhZa0sq1bbsiqJRQ5UuhayWMF4Abp1pbI0yad61aqBSa4Cq+ayDW7cmv2UKxte9Jqs762JnE7aR7/YJIWUl86ZIK3/9XSgpWjmfBHmVpLjhx5EUHX4cbp35hw8XSgWsg1t3CQOLr3uu8OMI26DwI6TSq/AAJISQikIBSAgRLQpAQohoUQASQkSLApAQIloUgIQQ0aIAJISIFgUgIUS0yuSbIIeDTuDgoaN4/vy5UEIIIUWrVq0a+vbugV4O3YSS4nudb4KUSQBO+2oufpjjjvp69YQSQggp2sPkFPy42AurlswXSoqv0nwVjmv5UfgRQkqKy43y7DnSMUBCiGhRABJCRIsCkBAiWhSAhBDReqcCkPuBUpX23pW82CMbsPZI7p+uLxXqMOxYc6zCbnmZ877FFUuN2Ogk5NjlhLxduMtg8g4pjx5lhF65kvG6Js+YIzwrxMXVGfJGfTK8LqYJBdnSTizMMG/UlE0TCgrzX1SG74KxGR3Z/HJhMJ8RkJHIJl1YzsaXh2rnK0339mV81mh1xoUMVcbBGU0zevwWIUzgxGb4zhieMThXmTLDd2LTjMHbYoXx/KXFhmZcvffq/sgrce+kDPnEffxrfJV2W/lPj83YPrKgaXk8jMo4FaUSRgpweT3b73YZay4L44SUgmLlRz7S09Mz/o2KfiXPChsquAUYCU+vfXlaUgr4rt+A4t1OV4E9HsPh+bA3vCNuIPHeHTbcQPCP9gXf06NUSWHdrTfCgyKyX4MyEkd8QhCcs0wdgQsHzODYPt8bmWQJ3z0YXucKuSFTSRxYiDUnc7fNNCe3wjNIGCmC8uQyuByIFsYK0G4Cgq8Hwq2dME7IW6ZiA9BpAtywDN453qgq1m311P8W8/ppxzVX/LB2e+7uHt8F3B0J9Wkf/HByILwWusJCL/Mn6Au5F4c6Gv5r5mLcsBEY57EVwZkpy3dpfXAxK3vUuOizATtCMwuy72HMLRd4K7s23N3g7E5G4qYwq+Z6KPZM+RIzrue4KXpUJA6aDYSdGat7pB+8l2rr4OK+CDvOcwuqERXkh4OhrNsetAVr1+TYdqoCgT7L4DFpMjyWsjoma4u5W3PGhrJ9w98r+WusOJm7qz9uykD2QZLzwyWSbTcEU777UhjXUl0/hBXurC7cOvj7KGugvHIIvkFsfaH7+LpoDyOweqzxQ7g6CcFs3/BlbL/5btuXvd/yrSt7bZn3f+Zeb9Y+Je8S1gDD4aMn8Nee/fkOu/YcQPy9BGHuyqNiA1DHHOPcxyB46Vbh7mmR2LEqAlPG9866X6/EUIKbs1fD/45QgCQcXf81btYyxN3IY1B2tULLYtwnBJpIrBg5HDte2MNj1Up4dFXCs9d0+N9n07g37sJjiM261aaGBdEiBCq0waw88BUGr1Giy/cr4TXFHMojh3CBn8IYm8PRjIXpZe28N1nwOZu7ossQP1y4ri0LDw0A+ljBgj1XPQKM+kyA1/qVWNxLgu0DlyGQywSJBJJ0QGZoDot2ZrAwYCHO1XlYF3iFG6LH6NFwtpFDkvlZcY4FZrQ+HN0XsA+LNGwctkG7HkFDp4n4sdYyFlTaQtURH3ibz8KITtl3atdc+QUjZofAaPxKeK8aDXnAcEzxiWNTpKw6kUAjE21dmslYWRIiFq7HvKmsvg/5xXPvtwLqqjqyDHb7pBi3ah28Zw6EXDfzBZB3yY2oGGzYtI0PuvwGLgT3//2PMHflUeEnQXStRsPdZD12sDeqct9qrOk0C+PMst+k0LOHy9QI+J8TWjj3Q3Dw3JdwcZBCk8repM3kxeruas7tg2faRMyZag9TuT5MnabCg4WU1wG2jkKxN/l2P7jM/haDzfRZQFlixCRXWAtTATPYDTWD7xWuu6hA1DnA2tQQLc17s+5hZlkkXKy0N343sh3AAtOQtVK5OjigJ+vsq1OlMLW1QiuWMzJTK9jZ2sCikUSo87dYzFq4jqzMztaelfOrATq5YoqrDf9aLIa4woVfjzCNp4/B0ybiwiofhKeGYdMSBdwn2YOLMi0N65YvQ8PPp2pfl9wMLkMGIvB0FOva2qCtAZvFwJyvi51J5t3dI9Fl2s+YN4W13Hvm7s4XVFdNKmsGS2VoqCdl+86MvXZ9YQnyLmlp0hzGRoUf4ulp31V4VnlUgrPAUjiPn4irS6bD/VcNPEbZ5LlLnATWXV1x9UAI352LPcm6dROdYMdmkuiwN9NtZbGOF6qSWYA2l2e1LLn1GrXujXC2fOFnU5OgPAnUrVVAt5qxsHICTkcglnWxL4Q6wZplnZwFGc5Fa8sCRsOuvXZ5TXRml5PrEq7Pbknm49U6F0Cii7rC01zMXDHHfD0WT1qNjd0mwMVYKOexDxy2+vCN07V1YcOIpYcA9joLfqUFK6iu8p5T4Zm6Gj06OsLN6xCiqAf8Tnrvvfcw/Yvx/GMVoSynvk49YdKimTBWeVSCAGTMRsOjjwaSobPyvEm1JLZOmJLoh+A7CgQfUMKlm7Y11bLdQOBkBG4Wp1dVlb2tWRczTRjlqO6HsneoLEerKD9sOdbEfPpCGM2PuSVcTh7DxaBIHHQygylXZmaFHgGhrCwE3mPsYc03oiLh7bYaTwetg+/OHfBdPBrmXHFh8tS5ZKRwnPQd5OmGWPx53g8WLefZm7R14YYDp5DombOVWEL51bWWGcatCUR40Dq46Phg8MitwgTyrmnS2ACD+jsh76+r6Deoj+FDBwljlUvlCED21rRz3wHviWYFtD7MWCtRAu/ly+CP0XDW5h8kXQdinuEv8Fzgh/DkzBTUQKVUs//nJrewgWNAAIKFnjRYt/DgfmBcOxPWzdaHEeuqJmaeYNAo8SirWWiCjq762HH4WFZLUaXI02qUsK7imEPYvjME1lYmQoCYwHpMADyX7INzJ3NtmVqJ2EgZmhoJXcpUNWuHZZOwF69S5T7B4hiwBXv4EyWvyXgAvHbOh3Nm1zmLPjo62MN39yHEsuDKIjznW9cPuVMixVNgXTPXrWcCx4EDYR1avPP75O00ZGBfvN8w90GpaW7jUb16NWGscqkkAVg0o56usNjtB/lIJxZWmczgtt0fLsmrMcK8FRoaGLOhFeyG+eAmm2rabjSMlg5GQ68wFgSu8NxiCN9+1rAbOgJ2ttMRNXwz5jmwMJJYoe9sCeaNdITL0MFwdg+BulnmsSoWztN+w+dXvkJLgy6wdnDEnMMK5DhKyUj5bnrwSRWsP8g8DiJFS3NTxN4xhWN7YV1SG7h4AJ4jBvPbGbkqmoW4dhIXSHYDRyPWw5F/HW4HkoQ6W+HUxLbCa+uCtVeE2UuBket8eOn5wJl1T/lusEMX2Hlrj4laOEyF3cHPYMS2a7G6qOOkTAF1Dfd2ZPtM28W267cMst9chQXIu0hHRwdT3T4XxoCPHbujdSvWyKikyuT3AN3cPbDWy1MYKyWaEMxr5gfriJ/hrCeU5cJafmrWXpFIIcu/GamVzuZ7kv983DdJ0qqy8gLOKnPTIZUW0EotAdbyU+kUUc88Sm3b+dEI36Apat8V0yt1FdavW5OV6Qhl5J3mu88f0bduY/qUCdDVLdkf1evmR+bvATZ+v8ij5lneghYgF2xJCF6zDL5TB8Ax3/DjcNf/FeMNrFPwfBKuvJBLarjppZAPQK2SB02pbTs/XPAVZ98V0yt1FdZP4SceLgOd8fXML0scfuWt8gegOgRrJk6HV+xA7JiW/4F8Qgh5HZU/AKX28ODOUHqNhkVxLngmhJBiemtOghBCSGmjACSEiBYFICFEtCgACSGiRQFICBEtCkBCiGiVSQBWq1aNv8M7IYSUBJcbXH6UlzL5KtzhoBM4eOhoud7hnRDy9uPCr2/vHujl0E0oKb7X+SpcmQQgIYSUt3f0u8CEEFI2KAAJIaJFAUgIES0KQEKIaFEAEkJEiwKQECJaFICEENGiACSEiBYFICFEtN6JAIw9sgFrj2Te8JcQQoqn7AIw9Bdo7w8rDDaD4e51CFGpwvQiaBRhCL9fvNtyKyMWYV5EkjBGCCHFU8YtwFnwv3cHiWyIPbgA1re/x2APP8QKUwsTvnswvM6phTFCCCl95dYFluiZYYTnSricXIjtp7mWnRrh+7bC02MyXIaNgPtCH1xM5uZUIyrIDwdDWdc2aAvWrtmAHaFqaO6HYMeaRXBn87pMmou1AdHI1T5MUyDYRzvdfaEfwjOzU5PEyjdgnjtbbthkeKzJ0QpVhsCb3z5XfgyxmStUR8Pf62ttvbhWK+UwIe+k8j0GWMsU1l2TcPGOko2o2H+G6DtlCbxXzYdjVR84Lz3GyhiJBJJ0QGZoDot2ZrAwkCDtngayTq7wWL8OXhNNcNVjOrwjuZkFIaGIbcKm8+vaAseRGxDOlWsUSJNaYaTHOngvnQjT69/DbTu3YCTWjlyEWIdv4b1+AcZ1knH3YGdDJFaM/ArBzUZj7fqVGCcPwOApPsVqtRJC3i7lfBJEHw2bAcFK7nidIewG2sPCUAqZ3ATOvRyAZNbSgxSmtlZoxfJIZmoFO1sbWDSSQGZlD2crE8ilUhhZOaFnp0ho0rRr5TkMxAhbNp1b18xZcAtdj6NXWLnUEo5OljCVs+0YWqKvgxXCU/mkY41DGRrqySCT6sPUyhJGUlZ6bh88DcbAfaAZ25Y+LIa4wiUoBOFcZhNC3inlHIBJSLwN2Mn12XMNogJ+0XZpua7metbnLUxymNBd5brAC+F7SyjPj8QQbZ1YyLJWJNelvug9F+P47UzGD3szzxZbYvBSMwRPbQvrUXPhfVp7EkWVzKaHb4GbUC+XMcvgDxkkuvxkQsg7pHwDMDUKF07qo0trQ9YD3Qq35WlwWbMDvjt3YPFIM2Gm/Kjhv2Awgtt/ix1sXt9fZ8HZSJiULzVihTxVBSyC8zkzzNvCbWcdPHqxbQuMen6L7SE34O9uhqjFfeARJBzs6zNLux1+2IML91i3mrUOCSHvlnILQO6yFm+P6fDt+h0GW7FguqdAeH1DGOlpp6el5j7TIJGweVT8EUFGgdgIFliN5GDFwAs1m5+fkO2hEiq+xceWOx2Ag/gSHc2BWAVb0NAQDfkFNVBp8p7RkEBuxbq5XZMQm6SCvL09HHf7wD/nZYXCegkh75YyDsBlcBauAzRyXYjw1itxdPkAcI03mc1AeLxYBpd+rJvZ7zN4RUtgp12I0YfdwNGI9XDkl3U7IIfzNFf4T3Nm3dLB7HkI1NkNOZ4jQuHetQvsHKzRcnYkXDZOhR0LPQunqRjx93T0GDoCzv2mI1glLKg8BnebLnDmurn9uuCz87Pg3pdNM3aF51I5tvezhh1bxmWoI6x7CSdUCCHvlAq/J4hGzVpkUqm2ZVcU1npTpUshqyWM5yP/9bGWHyuWSV/dCjd/Gpv71WncMtzJkvymEUIqm7fyniCS4oYfR1J4+HHyX1/BIcbNn/80bpmCphFC3gUVHoCEEFJRKAAJIaJFAUgIES0KQEKIaFEAEkJEiwKQECJaFICEENGiACSEiFaZfBPkcNAJHDx0FM+fPxdKCCGkaNWqVUPf3j3Qy6GbUFJ8r/NNkDIJwGlfzcUPc9xRX6+eUEIIIUV7mJyCHxd7YdWS+UJJ8VWar8JxLT8KP0JISXG5UZ49RzoGSAgRLQpAQohoUQASQkSLApAQIloUgIQQ0apEAahA4BofXMx7y478pEZjz0LhhuYHct68o2Rij2zA2iOvvzwh5O1WiQIwCRELjyE2782O8hG+fTrcFDaYt2oJ3Lgbmr8mZcQizIvQ3g6Tw924Kfw+9zP4hBAxeCu7wJrUSKC1OSzkUhixobSE7x4Mr3PFaYISQt4FFRqAqvNb4TFpBFzcf8GeK0o8Fcp56UkIFm5oPs5jK4KVXKEaUUF+OMjd8zd0H9au0XZhNfdDsGPNIu1N1ifNxdqAaPDtOHUYK8/ZrVbjos8G7AjNG3LZ640N2sKv99V5CCEFycjIwOGjJ/DXnv35Drv2HED8vQRh7sqjwgJQc+UXjJh4DA1H/wxvj96Qnt6HPcI0rjvsP3Mw1qb2xrz16zCvpxKevZYhmL9Jmz6MGrHHRiawaGcGi2YypN3TQNbJFR5sXq+JJrjqMR3erJGIVAUCc3WrNSzgFiFQkU83VyKBJB2QGbKWJbdeA7oZEiHFdSMqBhs2beODLr+BC8H9f/8jzF15VFgAXjiwDLqz52OGrSFkchM4TpmIkcI03AmC90lXuE+1gZGUdXMdXDGyNWvJXZfC1NYGbQ3YPAbmsGPP7UykkFnZw9nKBHJuXisn9OwUCU2adlXFw63XCq1kLABNrfj1WjSiACSkuFqaNIexUZ6bdefR076r8KzyqLAAVCpY2NTSFcbyeMi6v9gHT65Lyw9fY811OSQ6wvS8ksNYK5I7K8x1gRfC95ZQTggpF++99x6mfzGef6wilOXU16knTFo0E8YqjwoLQNbjBNILaaa1ngCvnTvgKwzBl/3hZiZMy0UN/wWDEdz+W+zg5v11FpyNhEmEkHLTpLEBBvV3Qt6fl9JvUB/Dhw4SxiqXCgtAC1t7+O87hqh07bjmvgJ3tU8Bc0vMuO6DPeeLcyJCgdgIwKgRayFyoy/USMs85qenDyM2PTFZGNco8UglPM8HF8oqVSEzEEIKNWRgX7zfUC6MaU1zG4/q1asJY5VLhQWgket8eOtvgJ2RNaxtHDFuYwTSMvebxAYztw/E1RltYd2P6wIPZvN8jUD+THBeZnCe5gr/ac78fM7TQqDOPBQhsULf2RLMG+kIl6Fsmjub1kxfmAiYthsNo6WD0dArjI3pw27gaMR6OKKhgTHcDmRfH0gIKR4dHR1MdftcGAM+duyO1q1MhLHKp0x+ENXN3QNrvTyFsSKkqqGRSAs8vqdRsxYda9vJpEWclNCooUqXQlZLGM+BX0fV/KcRQkqf7z5/RN+6jelTJkBXt2QnFEuUHzlUmh9ELZFaBYcfRyJlwVVU+HFYiBYUcPw6KPwIKTcuA53x9cwvSxx+5a3iA5AQQioIBSAhRLQoAAkhokUBSAgRLQpAQohoUQASQkSLApAQIlplEoDVqlXj7/BOCCElweUGlx/lpUy+CXI46AQOHjparnd4J4S8/bjw69u7B3o5dBNKiu91vglSJgFICCHl7e38KhwhhFQQCkBCiGhRABJCRIsCkBAiWhSAhBDRogAkhIgWBSAhRLQoAAkhokUBSAgRLQpAQohoFfpVOMMmTYQSQgip3PjcilXAolVLoaRohQagxQcfCCWEEFK5cbkVfecumjZpLJQUjbrAhBDRogAkhIgWBSAhRLQoAAkhokUBSAgRLQpAQohoUQASQkSLApAQIloUgIQQ0aIAJISIFn0VjlRqySoVUtjwMuOVP1NSRt6rUgX1ZDLoseFt8jpfhaMAJJVaTGwsWhgZ8TfMJuXj+fPnWfv9bULfBSbvHK7lR+FXvrj9LZYWNwUgIUS0KAAJIaJFAUgIES0KQEKIaFXuALy6Da6jRmPzVWE8X0k4umA0XBcch1IoebuUQv3TkxARcgmKVGGckErC188fIz6bwg/TZn+HjEp2cqVsAjBsDZo0NS10mLA/SZi5EOlqnD51Bup0YbwAj++fwen7j4Wxt8+b1l911Au9h3+C+UeLsU9JlrT/1Hj0+AnSXgoFpFTEKuLxw8KlCD5zHkeCTkJXV4KGcn08eJAMH9/9WL9pG/b7HxbmrlhlE4BtP0dkeGjWsOULVvbxTzieo2zZx/raeckbk/Vwx6E//8LcHrRPi/YEMaf2YPW6tVixdTvW/bEFK9jzXVHC5FKUlhiFsPBYPBLGxSAu/j4WLPZCVMxtrFm/GY8f/4fPPh2G776egQb19Vjw/YPjJ0Owc/c+7N0fICxVccomAHUkkEmlWUNdCVemC2mOMhlXxmjUSYgOYy2gkGtQqDXawvxo1Px8oTFqFDJXbmwZxTW27rAYqPJbSFgnN11ZZPdRA5UyBqEhbP5rca+sT6NWZ5elal9TgXVNjWNd1jOIiCvGa2F1VLF1vzJfOqsPV863jqUwNG8BubBPs7F54q6xfXsJ0ck51pDfOnOtL5O2LOdr1fDrK2bdK6H4U3uxKzwRqWyfNW5jhV5drNDOuDEalsGlhjfOB+Lwqcu4K4yXlkuRkQi+cKGA4SIeplRc5P7m/QeePH2KLyZ+BleX/pg7Zya62HRCfb16WDj3a77M/cuJaGZshF17D+B+QqKwZMWowGOA1/BbLxu0sLBB90Gj4Tp8ADpb2GPMrhhherbwHd+gc0srfr4BDlboPNwLp5OFiQVQHF0MVzsrDJixFqvmfAqzlp/gu2PZXUQN66Zz07vP8MKqBeNh2cYGqwo61nh1I7pbm8PMujcGDGd1dbKHmd0E7MyqahIC5ljBfvlGbJ7am19XVl3dD+c6tqfwZ6+ljT3rso5Gb1vutczD3tvCxPzE7IKrRW+sDMkdN6qjP8LMYjGC1GyE1c/Mwgq/5ax/3HEsGM7qOWgmVq32wCcdzDHgB+E4Y+Q22LN1/hbGz8lTnVjMr2PBCW6Fgmvb2LY/FV5nHAJm2aOF7Xh8u3otvhxkhRZ5Xlulp7mCoEj2+t6rBxvXkfi0+4ewtPgQTn36o6sxmx4fil1/++NkrBoxZwPxh+8pbXg9icXJAzuxwtubtRp3YX9EClfKqHHjlD82bWXluaZpEH/pH5xJ4OZJQRhb567j/wotQdYCPbsfG7j5vbdg05EIPCxBFzzufgL+OXGSD7r8hws4f/myMHf5s7Zsxx/n4/4b0Lc3TFoY891grrX3IDmZL2vSuBFu34nF+w3laPR+Q2HJilGBAdgEg7wPIeZuFOL4IQJ+0/VxdNZ+hApzZGk3CodihPku/Io+0WswdeVxqITJr7i7C9+NOwPzJaEIO7wVPodDcHyhDJu/2obTfI5cw+ZvvaAa64e4k3/BZ+8xxMUcw6Q2/NKvatIffxyNEOrJhmt/YVqD45jld0mYQUt5Mg513f7CGWG+4wu7Q7nHDyH8G4Hh6jVlF8wXHkKkMM8Zr6EwESbnq83HGNslCTuDw3K0uNQIObIL8i/6wUFPKMolDju/m4DTbX9C5IVD8PnzEMKCfkDdzd9gMxeklp0xVp6Ev8OuCfNrEHF+G+RyfWy+kv0BpLhyAhFt+sOW7RfV0Y2YsKszNlxg+/LPrTh+IQoxC7tBLsz7VrgTh3gubPQ/wIf1tEW5qOIRw96YIX9vx66wKMQnpuDRy0Qc9vVHCEv65m3M0bzaY1w7uR8B8dwCibh28zF0GjRE4/cboNbzB2zaPzj5mIVcTDz+e8HN8wQPWSsn/sFjcKPxJ1kLNOwBWJMdloYSqKJOYcdJfmXF0pgFhrxBfWEsf+3NCvpDLluHjhzD3gOHUKVKFTRnLTzuq2lzFy7Fpj928q297378GWcvhPGhZ2TYGAmJSvy6fhMeJmd+oJS/CgxAKeRNpMjutUlg1aU7e4yGIjMwBBbsH1SmI4zIe2HSzM5Qbj6LiAL6YBFHtuFol1EYay8VSgAT+/5wUkYjid/XrAvO/Q2plVBmdvlYt12SuY289PRhKM3Rv6zVAT16ssfouNwtoGaWsGmT/ZpMzDqw/x9G7D3tuCLkAI7ic4z9pAUyv2Yued8MFs2EkXw1ge0AFqS/nsDFzNebcAJ7duljmJ1ljv2Xw7V/sPkYC7kR3bO2gxbdMejjJEQ94Fp4HWA7Sh8RxyOh4CdeQ+iezpg2cxTkR8IQwZfF4fQ/7EPEpTPM2ZhudW5LKiSmZLcQJbXy3Xrlxd6QvOrVoat9lr+GH2LqBDfMmdIf7W5fxtXHLHgsB6H/Rx+ifw9T1GWhdjeW+0MyxaDPh+HTPs4YylqRfUxrsrIXSHtaD12H9EfbWtzKGqPnuHGYMeRD1MctnL/B9l9DK3za80N07emINnWA1Pi7eMjNWgxcuPTv2ZN/zI91u3ZoJK+Yj6Xd+w7y3yMeMrAvDBq9j6ATp/mWXk+HbpgycSw/z8GAI/yj2/gxqFOnNk6fucDPU1EqMAAZ5SXs27wYs0aNxixP1n0MjBYmFE4qb8H+rxDC7FWaVNayubGRXy93GQ0/zP5V27LkA4+1Pme6Q7ZnAiwdPsGslQcQWkRfThl2AJs9v2Hr+gYL1m3D38Wrai5K5RmgSwsYlTA3DHsMxTBsRNB5bQIqzx9CQJvP0cemgBWlsRYd+yBZNyfH62f1XsE1WNO167BiHxDyU8cRyn3YXAvD3w26oePgDhh0jbX6uH5fwiUcPdYGg2y0rQkJm3/D0Gv4rldvdB/3IwvYuIJb4JXds2dIE57mS6cmagnHBB89TOH/ZOLPeGPxmrVYvDsix0kN4YTKxvVYtsEbu/59IpQX4PEDPHjOHhNDsIJb15pdCHuNk/8N6tVDZytLYSybrE4ddOv0oTBW/jQaDeT69dHFthM//t9/2gPrpibN0KljB9SsWQNqtfYFNzZ4HzadOvLPn7HQrCgVF4AJh/Gl8yfYFNEEPaa4YVC3NmhY85kwsRR0+ByL1vyC9ZnDb3/hWLgnnJpoJ0ssp8AnOASHvu0P3UvLMcD6EywIyXH8Kwel/0z0HvQHIhp1x7QprNvZVg5ZEX/rpUqvGwZ9oY/f+G5wEkIOHUaPcR/zLbOCdcDkeTlePxv8joZimbOwA/hu8GFcjFTzXV1lb0uYS8xg8+kZHL2SBFVkGAtZbfdXqwmclh1DZND/MKOdCpu/sof9uF0sZt8ihu+zVhiTFIOrxfz3q1uba9WxRpvlUEz+dGTW8GnHeki7cog/oVKtRW+MHzYETnwLsBAsoGpzjw2s8FmOdU0e1ElbrxKw7diR/8mqnPo59oCOTkHdmLInY/VJSEzC3AVLoWJB166t9o+HOxvsNmMOnjx5ik7W2uDe9IcP/gk8zj+vU5vfKxWiwgJQGXoI+5S98NmsUXCy6QxbNjh14bqMRVNEhbGusBn395wvubwzcIm9iXOedRaGXG0miT7MPx6FhZsPYcvYS/ht19l8DuonITTwAJTOn+Krsb34etrasMfiVTUXvl6nLiGiiBM4r5LA1pG12NaxbvCN49jr3wuDughBlp/6+rDFJShTX339mWffgTawGqqPzef/wenzZzDIkvtjlcLiw14IiLyEkPPbsrq/OcladMbA6ctxfOcPMD3qhb8LvUi9kqnTDrbGbAe8TETQ1u3448gphISdwv6/92PvpQK6E4aN0ZC9SxIjT+JqCvcB/QwP46MQx2ZPZW9ojqR2XdSu/hQPU3Iek6kKHf7d9QBXT0cg7EYia3U2RlOud/ogAocjH/HHdDUp8bh2v4BtF6Lqe+/xgZfJ0twcTRo1EsYqxuplC9G7pz0eqVS4ERWD5sZNWYNhPJo3a4qaNWrAubcjRroO5uc9c/4i9BvUx2+rl8DCrDVfVhEqLAAlutynVxxuKrR/NBrW5drpp/1EyOuo3y6Exmkv3VAc88K3ntdgNak7rITpEu5NrVZBKVxGY2g/FE5KL8xfcjz72xHcJTFh14SAY89jWEBm/r1q4qBg3T65sX4+B/UlqM4dy7kdLaxLw7rDu7A3/6oWiq8XdmEd63JHKLnXk4ToY2xdF4QZCmPZHZPabMSSObtwdOgA2BcQ/rym3THcOQlLFnjhaFzWi4QqjoVv1vFVCTraDYV8jxeW7OmHjq20yShv1x22ezwxf09295ejSWD7KMdlSqo7cYhirUyjt+osiARteg9CL2MpdNjfQHxUBE6ejcC1O/Harml+6ljhE+643/NEhBxk/3Z/7MKu46G4xvr/9dtZoinbbYnnt2PZJn/cyOAP+gnqoZ15Y+i+p0H8lVM4fDGGv/TGpg933I+VhfmzVtB2bDp4HCHRJQ9AjkHDhuj64YcwNTZG984fCaUVhzsuyV0Cw6ku/ITZR6zFx13+soqFY2b4vXz5EroSXWiesQ+Uiv5iCPeDqHmHlEePMkKvXMl49uxZqQxnljbNkI/3zYjLVX4rw2+abYa8EZvGBnOX+Rl/bZmfYd5oQsZfscI8Z1ewabMy1u9ekTH8I+188kYdMwZ9fzgjJse6kv75NsOKn7Yi40xm2UXvjDFZy2gHqxHbM67x0//NWO/SMc+0tRlnUrLXmWu4dTBjWq7t+2Zs/ZEtn/Wa4jP+Gs+m5X2NfP2bZiw7m12Wu162GcN/PJixdWE+y+YzxGwfw29/4fHHuafls51nDy5nrB+fvX/54aMxGVvDc8zz+ETGwnas/JPtOfbn5YzVPVhZj7UZYVll3D6eL+xjYWjnkDFt762s6WU1REZFZZSN9Iz/1KqMFHVqxtMXQlGhsud/LpTwXqTx5f89E8ZfwZZLTReeZ3ueyq2rsOUqFrff8/v3KGr4ffP2jCEjx2dM+OL/Mj4dPzVj0ZIVGYq4+IwnT55k/PHn7oxxbu4ZX878hp9nyow5GQ8fJue7ntcZnj59mhH+7/VX8qywocJ/EZq7gDiNfTLLcp5lLQA/ryRnN65o2vUzVdlyOT+gOamsFcafGCzO9rmLglkLqITbLwhXL9RkXfKyPmRTotdYFGEfMLrlUXcmiv0dtjEp9EIhUgauRUfDtGlTYaz4WHZiw+bt/Lc9mho1QVz8PdSVyfjnYZfD+WsAE5UPIJPVwXdfzYBcv4Gw5Jt7nV+Epp/EJ5UaBWDFeN0A5HAhePlqJDq0M+ev8+MudeFwXeQt61fifoISderU4oOxNFEAkncOBWDFeJMAzClRmYS7ingkJ6fAuKkhWrcsu3/L1wnAirsMhhDyzuN+BeZDq/b82eGyDL/XRQFICBEtCkBCiGhRABJCRIsCkBAiWhSApFJ7r0oV/hdGSPnh9je338WALoMhlVqySoUUNrysZDfTeZdx4cf90IJeKV+nV9boOkBCiGjRdYCEEFICFICEENGiACSEiBYFICFEtCgACSGiRQFICBEtCkBCiGhRABJCRIsCkBAiWhSAhBDRKpOvwgUeP4WAI8fpS+yEkBKpVq0anHp2h2P3LkJJ8VWa7wL/37cL8MMcd9TXqyeUEEJI0R4mp+DHxV7436LvhZLiqzTfBeZafhR+hJCS4nKjPHuOdAyQECJaFICEENGiACSEiBYFICFEtCpNAGo0z6BSPxbGCCGk7FV4AF68dBVLV67FjDk/YM4PP/GPW//cjQfJKcIcpSkdD+7eg/ol9/wxIvx9EBidzk+pSOrIw/AOisGr574qTx2z3D0Db/8bUAujxaFWxOJBJXoJhGSq0ADcd/AfbNz6J27diUWzpkawMGuNWjVr4sz5UCz+3y+IuX1XmLNk1KfWws3dI/ew+gzU//ph/orV2P0vN1csQgKvI+GFDr8MFza3wmJL9MYuWMnWFXPxGG6oq6GaMJ4tbx0r3q1Lx3CBpZlUGC9S8in8snwt1h8viw80Qt5MhQUg1/L75+hxyPUbYPZ0N3w1ww1Txo/BorlfY1C/3kh98gR/7PQV5i6Z2NhYoONYrPXyzB6mdob0gwH4eeECjDNjM92PhwJN0cxYuwzunsJvByLwQBh9IyValxKKOMDIwEAYzyFvHSvcYygUj2HYOJ+6FkSvC2Yv/AGzHem6UFL5VPX45pt5wvMsGRkZ/K0IG+rrCyUlE3DkGPr2dhTG8rf9rz1IeaTClAlj0NzYSCjVasHe8ampTxD57w3UqyuDUQmu7OYC5eyBs3jZtg9sm0qEMi11ZCD+uvEezJvp4eW/p+CbYIBB9k3x37+ncXD/adx8mo7n927hRnpjmDeqAbxMQcQRX/y+7SAOhqWgUftWkFdT4sLu00gx0IPy5BEcTKiDDkZ1hC2kI6FY64rBw8d1YNRCDxLNvwjcnwDDbk2hOLAVvwWEQd3AAm30dfA8q44tUFvYwoPIY9i27U/8dfgyHjZsB3NuvgeXsWvjn/jj0FlcjgcatTJEvVcajWlQnPkb67f5Yn9wBG4/qoLGxgao/SIGAT43oNumNm7u2YzfdwUj8lljWLSQaVukLx/jxsl92PTnfgRejkL0HQ1aOPRG2wb8SnlcF377hXS0aNkA2j2ejhuBu3BC3Rhtnl/GlpMqGH/wPmpyk57ew2m/bdi06whO3NRB6w618e/e/YiuaQ7jumz6y1ic2HEId+uxce6ujBqufmfxX5NmqBZ5EL9u0dZfgYYwbypDVW6d5J3i/89ROPW0F8aKj8utZJYpdaXF7p9UTAuQO+GR2e3NG36ZPvrQkn+MvnWHfyy2l/eQ8EAXjeSZoZTtxrnsrqbi3j2WFHK8j6d4otFhQxqkxuaw+KAVCyy27EslApYvx35NZ0yc6YaekjPwPaVklY/F+dNn4L1yM04kPYWsVs7tFL6uP+KaYtgXUzHbKh0njl/GfW6RBCXr6D7F6YNnUKO7C4YZP0bgX0G4xSZl11Er4fBqzP/nKbqNZuvoXgMn9p1BguYy1nv64WFHV3w7cyxcPpCjZu7cZ9JwacvPWHoGcGTLfjuwMWKCLuDGMzYp4QaOXzyMX1b5IbbVAHwx2AgJAX44zjVfuXqvWIJfQ2vwy7k7Nsazl3IY5mkASpGCC0GX2esQPGL7KiAZDYzrISHiFN9l5u8w+zSS1XUzIhsPgPtMF7S6vx/7I1mo37qM4zfYvmWehwVh58XLuJHEj+J5+CnsZzuj7q1t+H5fMmy4+k9whoVcN59DBoSUTIUEYJpGwz/Wrs23CfIlraMNlqdpafxjsSnuIYa94U+vyz7+583eZNzxtFgFa10acYErdOWMmrLnddC8vRzVHwOtOnWBtWV7Flo6UPhvxhE9F7j3a4EGtZ7jiRpooKcH3LmLmPeawmWmO74Y6QqX9jkDMP913di9FvulAzBvXBc0b1AH6U+SAeOmaM6WUMfehbpWCwyb5MparAboYM7S5VEyVLnqyMT/jV+P18Onbn3Qil8H24h+PdR/nALVSykMWWtOWqcemlu2yArMTOpTm7A+1hozZvRHh8Z1IH2qhrpuUxiyqmdt342Fp4UBCy22HtaCw0s27TRrbWm64Jt8lsulIQvFl8msVasdjQgIwoNOvdCtbjpiFCloYGjEwiodF7Zvw/3O4zGxM9uGzlOoNaz+evXwPutopL/glnyMEycfw/ZDOe4/4AIxHefDbsD8YwfUecRWXssALdgHirSBEaxbybkFCHkjFRKAMmkdSCTVEX8vQSh51R0urRj9+ix0SoB/Qzewxw85jv/xx/w0SiQ8Ym/UJtxcLCTv6MLIUDgu9YCF41MjFo7aUS4sz4c9hnmLOgg7vA0/zv0dt6zcMK6jDh6wgH1q3AoWeUMgU951sRZa4LlqcPy4I1hHmMkZCtrjlTXadkYH7UStGjVYdzF3HW9duAzVB00hvXwM65f8CK+77TF7ZHtUa9AZ/Ts/R8Cyn7DicIxwhjunezhyPJaFSC80F/61b3HHSFkzjgvgV7bPWp333zOAoVxYrocD3s9nuVxYIBnVSMEDlutc6y8gjH1AsA8ObtsJrJlr2ISFFdsP5yMN2AdCCgLZB8LXi46h5pAJcGnMGrmslftAyZp88adwQtoF3Vi3nqc8hcA7HdGtoy4a2PaC7ctj+HHe7wiIFpKWkDdUIQHIsWxngeSURzgcdEIoycb9qsM/R7Xlbc3b8I/Fdf8+azmw1lXeVpC25ca9sdnzB+yNmbMrx51sqMG6mlmh9hgPH+kgIeoGnjbuCvd532BGLyM+wBTx91CDtXgKPMqQd10qFgwvWUAYCuOsi67IDAXWdeSet2D1zRQREYMaFuZolaeOKtVj6CTGIOKZARwnfoufJ9ujOR9aujD/5Cus8uiFaid/x1J/1m3OJQUPk+vB0DDzoGAaq+JjvN+EW7ESCpZpXABlUiuVeMp3u/Mu9xi3bmUulxerZ6PHSEh8jEt+h/GkZx/YcnV7HI9bj9g+b8Ses/o/YF39W9Fs/1m4YOF8d4yy1IZ7/brs8cVzRJyMQCvb9jBsyLrO9+8h4uhJVGPBbc79ldZohVHfLsACJx0c+XUtfOP5RQl5IxUWgH0+7sFf8rL3wCH4+O7HXUU8f1Lk0tUILF21Dndj46BXrx5MWzQTliiOFNZKSWNvoFe7R9qWGwsiboQLqVqNs7pyCfdZ66OOHn+c6nk6d8GaDnTYnjGy7QNHMyPWXUvHgwdcq0N7xjZnYOX16ro4rJvKXRPz8jEu/LEJJzJD4eVdFqjZIaMO2wbvi3ro2aPVK3Wsxs3SuDNcurVC87rciY8UqFlr8rmwiWoNWEvJTBcP8r2YnHU3H3GP6VAEbMC2aBbAjdk+4sJYybrtWSdxhBahkRG05zhyLrcZvqxRzi/3ijrsNdRBwmVf7GFd7U8dhXnYum7VYC1GbmVsf1ZjHyEdHO1hy7qv1VigPkjWVr6arA5qKA7D5wFrzWb+AttD1pL81xwuXVjd2H7UXiOpgwadOsOStTZVfL0IeTMVdha4JuvmtWhuzF/rx53tDT5zHkdPBCP0cjhr7aj58EtOSUFc/H10tGwnLFWElzdwbHcMGvTIfZaSE3l8H67rdUF/M9alrvIQV4+fQMDhBDTs0RatXibh1KkTOHzoKAJj6sC6U3u0qBKOP3wP4dSZEAQcCsTVl6awbZaIY9wZ2z5d0Co7M3KpnZ5nXQ6tUCXiCPYdPo+gE/9C1rk1ntyqhS792qDBw9sIOn8Fl0PP43jQYfjfqI0BUyfg40YsLfLUsUPDqgjd7Ye9Z88iKJDNew34oH069n2/GtvPsDK2/LkHhvhkeC8Y1xIqw9OD5OEp+AacwKmTZ/GwQyc0itDAdKA1jBPD8NfZ6ug8tC0aV+Hm1Z5Br2o1CB82blDwcq+cZGGvWx0D32NK2EwaC1vhyEJC6N848dwcgzoZQlKzEWonBmLbvhCcOn0KB/45jwS9D/ChEavsy0ScDYyEvM9odDHQvvZQ/zDIXCbAqQkL+6s78H//24vj7N8i8J8wKJv2xeg+hllnxsm7pTzPApfJD6JO+2ouf+ytuE6fvcCf7eVOeHDH/LhuL9fyW7fxD1yJuMbGP4Db56OFucvP86eP8TSdtVtq6aLam7SVX6bjaWo6dApYD7+dlzUgrZXZ3SxAehrUT5+jWnXWYsoRQs9TueVZPesUdGaUbf/xU9aNZMsVsYncXne5ghVd1wLw+/Apnuuw/VRalSGVEnfictWS+cJY8VWaH0QtKduPrDFmxFBMHvcpXAY4Z3V7J3/+KR9+VyP+xdqNW/my8lSNvfGl3Bv1TffSezraN3wB6+G3U1T4cXR0+bPjOcOPU62WUE9h/FXc9l8nxF53uYIVXdcC8PuQLUvhR0pRpQjAwnAtPy4Em2pP3xJCSKmp9AHI4UKwTy8HYYwQQkrHWxGAhBBSFigACSGiRQFICBEtCkBCiGhRABJCRKtMArBatWr8Hd4JIaQkuNzg8qO8lMk3QQKPn0LAkePleod3Qsjbjws/p57d4di9i1BSfK/zTZAyCUBCCClvb+1X4QghpCJQABJCRIsCkBAiWhSAhBDRogAkhIgWBSAhRLQKvQzGsAn9Bh8h5O3A51asAhatWgolRaPrAAkh7wS6DpAQQkqAApAQIloUgIQQ0aIAJISIFgUgIUS0KAAJIaJFAUgIES0KQEKIaFEAEkJES9QBqEm4htMhZxCRoBFKXqWKOcPPE50sFBBC3hlv9VfhXEeNFp7lw3EOfMa2EUbyp9z/BSynHobT6hBs6K8vlOYWutIUA5YDX+2NwjRLobDUJOD4yl8R8dEMfNmpvrboxROkPnkO6MpQK/PeMMpALF2bgD6zR8GsplBGCPM4NRXJKhWaGhgIJZVf6tOnSHjwAC0MDYWS0iG6r8KdPsVaZwUNqoJbdZXF87A92BTTCh935MJPhcid8zFm/CxMmOaBCROn45u9EUjlZpR3Q3eDEGwKvMWNEcLjwi847BIu/Xsd/z15IpSWAk0SQnctxpiupmjS1BSrwoTyUnLuajjCb0YhOjZWKKk4b3UAxt2N0g573bUFM//KLpveQVuWqoYy5pK2qxtXSCimxiEi5BLr6hYzODVqRIexoL0WB026UJaJX5d2WsE5rMKFExHQd+oG06rc+EOoZP2xbP0a7Ni0BhvczZC03wfH73PTqsHapj2SDgYi8gU3TsSOCzwu/DTPnqF969aoXbO0ugbXsMrOBgNmbcTRu0JRKfuobVvoVq+OiKhoxMQqhNKKUaYBmJGRgcBjp+Dr55//sM8f9+4nCnOXPuU/38CyjRUsHT6B6/DR6G1rjs4/HGfRk5viz/9D5zb26D38E3TvYI8xm6+hsBhU+H+Dzi2t0H3QaLg62aOFwzcIiMsxjV+XdppZyzUI1U7KLS0SYVdrokPLzG5Ac9g4tYe+0O2tZdYB1iwUkx5px9HCHNbPb+LyHWGciBbXhTwVGpYVfsaNS7P7K4XtQj+cuRYFv5lCUSmrWUMXXTt2hK5EgvCoqAoNwTINwJvRt+C99U8+6PIdWAgePHREmLv0SQz7YXVQCCLDQ9ngh4X2LKA270eIUpghU9tx+IvNExbwEwbKk3D0By/sLejT7+4ufDdlFzSf/oqwGNbSPP0TnFjZt76X2MRr2DtvFxRd5sDvArfNUJwJ+Bgm2iVzi7+FK3gfzeTCeB6pYRdwuk57WDcTCnSbo5nRE9y8nSAUEDEq2/DjNIHVx21gWEsYLSNcCHbraJUVgrfj4oUp5atMA9C0RTM0NSz8R1V7dLMTnpU+WZvOsG0hFcZawJTvFWugeckXZDE0M4OhVAp5m6H4bDhXchzBEUn8tLyUEWdwlD06mNRB1HnWzY3VQMaV34iDkn16ys3YyKltWPfnCUQ/kcCwTQt++ivSniCVzS+rI4zn9CQEmzbcgu34UTDTFcoY7ob595Lztl+JWGSGX5pGA6s2bcog/MpXDd3sELxy40aFhGCZBuB7772HLyd/xj9WEcpy6vNxD7RobiyMlT7NtW2Y0NUcZhZWbDCH63JhQiFk+tpjh5qCjrW90HaOd/7AurhcN3f4j9jJFejVgYR9eg5b/he+7y9B6PKZGNDJHq4LjqNEDfwnEdj+sw+S+k7ByLZ0ypdo8eF3MZQPvw4ffADDRu8LU95uXAh2taq4ECzzkyCNDRphQN+Pkfdamwb19fDJ4P7CWFmIw96ffkTA3VHYEq49MVL0MQ0NEuO4rixgVC+z5ZhHVQn/MGx9aPYJF25Y2F3b0tPrgEmrDyHskh9++VQfp3//Bnuv8ovkplsTtZCOJ2nCOOdFAg6v3IDzLT/DV/2bs+m5PX8OGOjl254k77j4RCXSWLe3WjUd1K1TWyh9N0gk1SGtpf1rvx0Xh5cZr1yZV2bKPAA5g/o5oaE893V2X0z8DNWrZ17oVhbUUD3kHpVISmLP41h3VZttrwjdtw37jrGu7a7FWLKOFcinwOFDbdBJdLT1Php4AKF31ZB37o+xctYCXOSB3/5h6+TO9oYcxs6j3FmQGARsPszGr0GRLoGksOMojZujHWsbxvN1ZLjwW+IJf6PP8NPI9q+EH16weWOBZo3fjU9+UjItjZuihZEh+xBM58/+qh7/J0x5u718+RJnLl+BMjmZP5Nta9kB71XJr79YNsolAHV0dDBl4lhhDOjp0BWtWrYQxspKGwyaMRSGOIxZDqwLPGIbVE06C9Ny0odNMw3+/Go0xszahtCmvbBwyxTYavMP5r3d0YMFXuivM7EpgnV/9brj+y0/wImtd8HEzG7wPKy7rWZzaxC7Yx4bH4DO1r0xYV0SbL/6FZPaateVi64ZLNuqcOlf4aTG9f3YfPM5kgLXY8JnUzAic/jjsnZ6zA1cqNYe1sW/3wt5x1iYmmpDMJ0LwbC3PgS58Ath4fcgJQW1atRAFytLSKpXF6aWj3L9Jsje/QGIuX0HX04aB11dIWHKmoa1/lhu6UqlKHyLGqhYhsmkxa+XRq0G14PVrcnWraMt46WybXLHECVSyApZ3fOwNRi/5314LhyMwg9nP8eFDdOxSTYdaz5pJZQRsco8VlaNNSzsLC0hewu7xPmFH3cc8E1U+m+CDOrvhFnT3cov/DhcCBUZfhxJicKPI2Hr5dedM/w4tbTlhYUfp5rlYHymfwmHLxdxFb8qBOei2+OzvhR+BGjXqhWasTd5ZkswhX0Qv024oCrt8HtddFtMQt5SV27c5E8acIeYult3LMVvg5Qt7hhmWYSf6L4LTIiYtWvVEk0NGvFnUGuyMHlbGDV6HzV1dSu05ZeJWoCEkHcCtQAJIaQEKAAJIaJFAUgIES0KQEKIaFEAEkJEiwKQECJaFICEENGiACSEiBYFICFEtCgACSGiVehX4QybFH4/D0IIqSz43IpVoK6sgF9zz0ehAWjZNr9f8iSEkMqHy62o23fQ+P2GQknRqAtMCBEtCkBCiGhRABJCRIsCkBAiWhSAhBDRogAkhIgWBSAhRLQoAAkhokUBWALK6Gio0oWRt4YCgWs2IPCOMEpIJfP4v1ThWfkrk2+CPH/+HNNmfYcHD5OFksJx9zV1nzoRH1p1EErKmwaxodHQNTeDvKC79CUfgrv5ZGDjVXg5Ff+rNhUvDCsMBgMH7mCGlVBESCUxc848KOLiMeOLCbDt/KFQ+noqzTdB/kt9wodfndq10eaDloUORk0aIz09HQrFPWHpihCJPf1WI7iwvNbrjcXXr2LxWxV+hFReicokPvw4sQrtY3mr6vHNN/OE51kyMjKQolKhUcPiJ2lOaU/TcCDgCNqaf4DvvnaHfVfbAge9enVx+uwFmLVphTatWwprKB5VqA923JahseIQlnr9hNV7r6PaB+1hoDyGTf9bhsW/n8J9eWt81FSmXUAdDf81P8Nj5SacVdRCCzMT1E+NRuA/++DvH4l4yRMowqNRpZU50k9uwNE0U9SP2oetB5PQ0FoHlzb6IVbfCs3ralenuuKHHb9vwsK955FatRnatJBBRzvpVcoQeC9chIW/H8RlZS20bNsMshdJCPbdAe+N/8PqzUdYuQ6atmF1ql7C16YOw47tt6FbIxJ/cdN2nUdyLRNYN+Ne932c/Z8PMGIGPjLQViXf/cC1fHOWX09HA3NzGLw999smb5natWpBWqcODBo1xCcu/aFTtaow5fVwuZX86BGkrOFVXOV6DDA45Bz+2rMfaWkaoYT1watU0T6y/0pKozgGjy/mYofaHON+/BluxqFwGzIZ80IAuykLsHiIBBuHbUCgmps5EitGfoXgZqOxdv1KjJMHYPAUH8SySbpVJUiDDEasC2zRzhxGLAyUEYuwZt50eB7jFuYkIYIFWMRD7ZjywHTYjdkHtdUAuA+xR0uWNWnaSfmIxNqRixDr8C281y/AuE5sZm4XaBRIk1phpMc6eC+dCNPr38NteyS/RIleW6oCgd9Nx7wj3LQl8JpogqszB8PjSGbdcyhwP6gR6OkIXz2ufB3cB8khyf5nIqRM9O5pj7GjXCGpzj71K0C5BuApFoC79hxAmiY7KrjU5h/Zf6+l00CMcDKDkdQQjr0cWDLZYOS43rAw1IeprRWsoYQ6lb3vz+2Dp8EYuA80g1yqD4shrnAJCkF4ugnsOpqy+JOiVUcb2NlmHwcMt5kKr+8mwG2KPYy0RQIWONv94Oi5EjOcuGXY8KEhW0dBNNAkydBQTwYZ27aplSWrLyuWWsLRyRKmcilkhpbo62CF8NQcqVPM16ZlBZch3DQpjKxGw2O2KbwPhLA5citwPyg1UCcDMpmclbN1mNnDopGwECFl5MWLl0hKEloVFaBsAlBo1WU6fjIEPyxaipvRt/jxpSvW4n+r1vHP36QFWBKqZAVLtC1wGzYCLtwwZhn8WWRJdIUZSiQJypNAUxZcxWOJwUvNEDy1LaxHzYX36SShXI2L3nMxjq/TZPywl9WxlBiZWrK0e7UJV/B+0IfztPlIW9UHFg7TsSIgGiphGULKAhd+02d/hynuc3Ai+IxQWr7KJgCFVl2mxKQHuPbvTfwnnO6+GRXDD5w3bgGWRJ9Z2LFzB3z5YQ8u3JsPxzc4p/H0hfCkGIx6fovtITfg726GqMV94BGkhipgEZzPmWHeFq4+6+DRy1CY+80pEwsJ0wL2g8SMdX+DLiB4/UBg53CM8I4WFiCk9CUnp/AnQjgJCXn7KuWjXLrAri79sWvbBli2t+DHN/y6DL+tXso/Ly/y9vZw3O0D/5y5kHlNX1UJJKw19qjYlyOZoeNUfezY5ofYEl0XKIHcinU5uyYhNkmFWEUEYGiIhnyXWwOVJp9jdsXG6p8stPjSWRf9IOuiO1hCri3JUuh+EB5lJvYY3M8KFxMr5o+SiIO+fn18OXkchgzsy58EqQjlegywQhm7wnOpHNv7WcNuKOv6DXWEda8NCOemyW3gMk4Bj67GaGgwHf5Fvu8lsJu2Ge6aZbA24pYxhoX7oVeOt2VRHoO7TRc4c13Ofl3w2flZcO9rCAunqRjx93T0YPVx7jcdwao3aQGqcHTVZ7Bg27E2Gow10nXwdOXWZwLzcYbw7GeMFaFstMD9EIm1vbpklTkvl8F7lA2/ZkLKSje7znAdMiDrUFh5K5MLoVNSHmHi1NnoaNkOX8/8UijN34XQy1ji9Su/E7hPgrLHWlpqrqUkgUxa0FXPJcBabap0KWS1uKfq/M8ES9h0tint9Lzb5erDWl1vUpf7fhhnFYC+oeswWC+7PoXLfz/kX0dCykaqcM1wU6M3v/9Q5flJfCHNHz/+D5H/3ih0UMRrL4Au65Mg2bg3NwuI0nqDc+HGh00Y1rZui5b5DO4B2uMckny3W8phk1WfouS/H/KvIyGl79mz53D/ei5mffMjAo+dFErLV5m0AFOfPMHYidOFseIZM/IT9HXqKYyREuEuhN4WhZajXNGRvqhC3hIPWctv8vSv+efceYIhg/rxz1/X67QAy+yucCeDzyBBOMNTlGo6OnC074o6dYp/BTch5O139nwof5XIAOePhZLXV6kCkBBCytPrBKB4zgITQkgeFICEENGiACSEiBYFICFEtCgACSGiRQFICBEtCkBCiGhRABJCRIsCkBAiWoV+E8SwyZv/QgMhhJQHPrdiFbBoVfybq9FX4Qgh7wT6KhwhhJQABSAh5J2S9uxZsQfqAhNC3gmZXeDWJi2EkqJRC5AQIloUgIQQ0aIAJISIFgUgIUS0KAAJIaJFAVgCyuhoqNKFEUJIqXj8X6rwrPyVyWUwz58/x7RZ3/E3PC4OHR0duE+diA+tOggl5U2D2NBo6JqbQV7QLXGTD8HdfDKw8Sq8nOjek4SUhplz5kERF48ZX0yAbecPhdLXU2kug/lPuNt7ndq10eaDloUORk0aIz09HQqF9gbpFSMSe/qtRnBhea3XG4uvX8ViCj9CSkWiMokPP06sQvtY3qp6fPPNPOF5loyMDKSoVGjUsPjfqcsp7WkaDgQcQVvzD/Dd1+6w72pb4KBXry5On70Aszat0KZ18b/EzFGF+mDHbRkaKw5hqddPWL33Oqp90B4GymPY9L9lWPz7KdyXt8ZHTWXaBdTR8F/zMzxWbsJZRS20MDNB/dRoBP6zD/7+kYiXPIEiPBpVWpkj/eQGHE0zRf2ofdh6MAkNrXVwaaMfYvWt0LyudnWqK37Y8fsmLNx7HqlVm6FNCxmST2/FwkU/Y+3BK0jWNUFbVqajnZ0QkkPtWrUgrVMHBo0a4hOX/tCpWlWY8nq43Ep+9AgN9PSEkqKV6zHA4JBz+GvPfqSlaYQS1gevUkX7yP4rKY3iGDy+mIsdanOM+/FnuBmHwm3IZMwLAeymLMDiIRJsHLYBgWpu5kisGPkVgpuNxtr1KzFOHoDBU3wQyybpVpUgDTIYsS6wRTtzGLFusDJiEdbMmw7PY9zCnCRELFyEiIfaMeWB6bAbsw9qqwFwH2KPlixj0yI3YMQ8BXp8tw7eC0bDmivTzk4IyUfvnvYYO8oVkurVhZLyVa4BeIoF4K49B5CmyY4FLrX5R/bfa+k0ECOczGAkNYRjLweWTDYYOa43LAz1YWprBWsooU5l+XduHzwNxsB9oBnkUn1YDHGFS1AIwtNNYNfRlMWfFK062sDONvs4YLjNVHh9NwFuU+xhpC0SKBC43Q+Onisxw4lbhg0fGkLGgj2xvhx1ZVLI5CboyJUJSxBCXvXixUskJQmtigpQNgEotOoyHT8Zgh8WLcXN6Fv8+NIVa/G/Vev452/SAiwJVbKCJdoWuA0bARduGLMM/iyeJLrCDCWSBOVJoKk8z/FA1hr0Mg+BW+suGOmxFcFKoZwQ8gou/KbP/g5T3OfgRPAZobR8lU0ACq26TIlJD3Dt35v4TzjdfTMqhh84b9wCLIk+s7Bj5w748sMeXLg3H45vcE7j6QvhSRbWCv1uEy7c3gP39tHw7DVX2/0mhLwiOTmFPxHCSUiomNZCuXSBXV36Y9e2DbBsb8GPb/h1GX5bvZR/Xl7k7e3huNsH/qwhmCXzmr6qEkigxqNiX45kho5T9bFjmx9ic14XmPlcoo+OrgNhp1RAWbwrgQgRHX39+vhy8jgMGdiXPwlSEcr1GGCFMnaF51I5tvezht1Q1gUe6gjrXhsQzk2T28BlnAIeXY3R0GA6/Iv8MJLAbtpmuGuWwdqIW8YYFu6HcO3Y17C2Gcx3sZ1tJuGix1S4GAuLEEJe0c2uM1yHDMg6FFbeyuRC6JSUR5g4dTY6WrbD1zO/FErzdyH0MpZ4/crvBO6ToOxpoFJzZ6ElkEkLuuq5BDRqqNKlkNUSxtPZ+p+w9UtYWSmsnpB3WapwzXBToze//1Dl+T1AIc0fP/4Pkf/eKHRQxGsvgC7rkyDZuOBj4VQa4cfhgi4z/Dg6wvop/Agp1LNnz+H+9VzM+uZHBB47KZSWrzJpAaY+eYKxE6cLY8UzZuQn6OvUUxgjhLzrHrKW3+TpX/PPufMEQwb145+/rtdpAZbZT+KfDD6DBOEMT1Gq6ejA0b4r6tSpLZQQQsTg7PlQ/iqRAc4fCyWvr1IFICGElKfXCUDxnAUmhJA8KAAJIaJFAUgIES0KQEKIaFEAEkJEiwKQECJaFICEENGiACSEiFahF0IbNnnzLygTQkh54HMrVgEbK0uhpGiFBqDFBx8IJYQQUrlxuRV95y7MW7cSSopGXWBCiGhRABJCRIsCkBAiUsD/A60YlhDsAUndAAAAAElFTkSuQmCC;" parent="1" vertex="1">
          <mxGeometry x="188" y="750" width="237.34" height="290" as="geometry" />
        </mxCell>
        <mxCell id="1afQDspEj4p5PpRKa2CH-15" style="edgeStyle=orthogonalEdgeStyle;rounded=0;orthogonalLoop=1;jettySize=auto;html=1;" parent="1" target="1afQDspEj4p5PpRKa2CH-14" edge="1">
          <mxGeometry relative="1" as="geometry">
            <mxPoint x="1020" y="200" as="sourcePoint" />
          </mxGeometry>
        </mxCell>
        <mxCell id="1afQDspEj4p5PpRKa2CH-12" value="Create glue job&amp;nbsp; schedule excuting to statistic the data into iceberg everday" style="text;html=1;align=center;verticalAlign=middle;whiteSpace=wrap;rounded=0;" parent="1" vertex="1">
          <mxGeometry x="590" y="105" width="240" height="30" as="geometry" />
        </mxCell>
        <mxCell id="1afQDspEj4p5PpRKa2CH-14" value="Amazon QuickSight" style="sketch=0;outlineConnect=0;fontColor=#232F3E;gradientColor=none;strokeColor=#ffffff;fillColor=#232F3E;dashed=0;verticalLabelPosition=middle;verticalAlign=bottom;align=center;html=1;whiteSpace=wrap;fontSize=10;fontStyle=1;spacing=3;shape=mxgraph.aws4.productIcon;prIcon=mxgraph.aws4.quicksight;" parent="1" vertex="1">
          <mxGeometry x="980" y="450" width="80" height="110" as="geometry" />
        </mxCell>
        <mxCell id="1afQDspEj4p5PpRKa2CH-16" value="create datasource and graphs to show&amp;nbsp;" style="text;html=1;align=center;verticalAlign=middle;whiteSpace=wrap;rounded=0;" parent="1" vertex="1">
          <mxGeometry x="1050" y="260" width="60" height="150" as="geometry" />
        </mxCell>
        <mxCell id="1afQDspEj4p5PpRKa2CH-17" value="Solution 1:" style="text;html=1;align=center;verticalAlign=middle;whiteSpace=wrap;rounded=0;" parent="1" vertex="1">
          <mxGeometry x="80" y="30" width="60" height="30" as="geometry" />
        </mxCell>
        <mxCell id="1afQDspEj4p5PpRKa2CH-20" style="edgeStyle=orthogonalEdgeStyle;rounded=0;orthogonalLoop=1;jettySize=auto;html=1;" parent="1" source="1afQDspEj4p5PpRKa2CH-19" target="1afQDspEj4p5PpRKa2CH-21" edge="1">
          <mxGeometry relative="1" as="geometry">
            <mxPoint x="420" y="595" as="targetPoint" />
          </mxGeometry>
        </mxCell>
        <mxCell id="1afQDspEj4p5PpRKa2CH-19" value="Amazon CloudWatch Metrics" style="sketch=0;outlineConnect=0;fontColor=#232F3E;gradientColor=none;strokeColor=#ffffff;fillColor=#232F3E;dashed=0;verticalLabelPosition=middle;verticalAlign=bottom;align=center;html=1;whiteSpace=wrap;fontSize=10;fontStyle=1;spacing=3;shape=mxgraph.aws4.productIcon;prIcon=mxgraph.aws4.cloudwatch;" parent="1" vertex="1">
          <mxGeometry x="70" y="610" width="80" height="110" as="geometry" />
        </mxCell>
        <mxCell id="1afQDspEj4p5PpRKa2CH-22" style="edgeStyle=orthogonalEdgeStyle;rounded=0;orthogonalLoop=1;jettySize=auto;html=1;" parent="1" source="1afQDspEj4p5PpRKa2CH-21" edge="1">
          <mxGeometry relative="1" as="geometry">
            <mxPoint x="960" y="665" as="targetPoint" />
          </mxGeometry>
        </mxCell>
        <mxCell id="1afQDspEj4p5PpRKa2CH-21" value="Amazon Athena" style="sketch=0;outlineConnect=0;fontColor=#232F3E;gradientColor=none;strokeColor=#ffffff;fillColor=#232F3E;dashed=0;verticalLabelPosition=middle;verticalAlign=bottom;align=center;html=1;whiteSpace=wrap;fontSize=10;fontStyle=1;spacing=3;shape=mxgraph.aws4.productIcon;prIcon=mxgraph.aws4.athena;" parent="1" vertex="1">
          <mxGeometry x="480" y="610" width="80" height="110" as="geometry" />
        </mxCell>
        <mxCell id="1afQDspEj4p5PpRKa2CH-23" value="AWS Glue" style="sketch=0;outlineConnect=0;fontColor=#232F3E;gradientColor=none;strokeColor=#ffffff;fillColor=#232F3E;dashed=0;verticalLabelPosition=middle;verticalAlign=bottom;align=center;html=1;whiteSpace=wrap;fontSize=10;fontStyle=1;spacing=3;shape=mxgraph.aws4.productIcon;prIcon=mxgraph.aws4.glue;" parent="1" vertex="1">
          <mxGeometry x="980" y="95" width="80" height="100" as="geometry" />
        </mxCell>
        <mxCell id="1afQDspEj4p5PpRKa2CH-25" value="Solution 2:" style="text;html=1;align=center;verticalAlign=middle;whiteSpace=wrap;rounded=0;" parent="1" vertex="1">
          <mxGeometry x="70" y="550" width="60" height="30" as="geometry" />
        </mxCell>
        <mxCell id="1afQDspEj4p5PpRKa2CH-26" value="Create Athena CloudWatch Connector to get data tables" style="text;html=1;align=center;verticalAlign=middle;whiteSpace=wrap;rounded=0;" parent="1" vertex="1">
          <mxGeometry x="220" y="620" width="180" height="20" as="geometry" />
        </mxCell>
        <mxCell id="1afQDspEj4p5PpRKa2CH-28" value="" style="shape=image;verticalLabelPosition=bottom;labelBackgroundColor=default;verticalAlign=top;aspect=fixed;imageAspect=0;image=data:image/png,iVBORw0KGgoAAAANSUhEUgAAAUUAAAHGCAYAAADjUJkrAAAAAXNSR0IArs4c6QAAAARnQU1BAACxjwv8YQUAAAAJcEhZcwAADsMAAA7DAcdvqGQAAIe/SURBVHhe7Z0LXBRV+8d/pbSkCWmy5AXUBLUANS75CmiBaCKaChqKpUZ5gfKCf0zJUkoLU9/QNDBNUl+lSFFQCVIEL4gpQipgKnjb9cbibddQNtH9n5mdhQGXBRQU9Pn6GZk5Z86Zc87M/OZ5zpmd84zq5k0NBO7evYvT587B7tVXhRCCIIj6Dadb+WfPoXPHV4SQh+NZ4S9BEATBIFEkCIIQQaJIEAQhgkSRIAhCBIkiQRCECBJFgiAIESSKBEEQIkgUCYIgRJAoEgRBiCBRJAiCKFai6CZbiu+AfuZHEESD5qF+5ncpGcuWbkX6pTtCAFmKBEE8rSh3Y+GcTUwQjWDzjjemT/kA49+xIFEkCOLp5OLuJPzFDETrEcGYNdQDr3d3wltDQ0gUCYJ4GrmKnFwl+/sS3nj9ZW2QAIkiQRBPIcxEvMv9NYJRBRUkUSQI4inECGjE/b2DO/f4gFJIFAmCeAp5CbbdX2J/ryL1z9PaIAF6JYcgnjD+/fcOEpKSkX/6DM7JL0CluomXWjRH+3YWcH/TFXY2XZCcsgdR//sV4z4YBbfeLkLKuuP8hUvIO3W6To71wK/k3ErHsqnrkH6nCWze6Y8BHUyhPJNcB6J4eSvG9ZiGRGFTh7TzIIz9v48x5u2OMBXCqs21U9h3XAHTV+xh+7JECCQIoiK5f5/A8p/W4uq16/x2s2YvwOyll3Dx8mUUF6v5sB5O9uhibYU10b89ElG8cPESvpofjps3/8Gib+agdStzIaZ2eKj3FK9nYP3365Bwtuw9xToURTNYOVvBnPPbFfnYd6KQj3aY9ht+m/I6aiJtii0fw37SdnguTcfKd8yEUIIgxPx9PA9zvw3HM888gz5vueJtj7fQpnUrPk6j0fCC+ctvm3HmnJwP58SqrkXx4qUCJojf8dbqR2NHMUu1HlmKYoqVKDy1FeFL0uuyT/F1TA1fi5h1bNmejqyoD2HLQjO/+xhL0rVPLB1q1XnkpO/HPm45dh7qEiFCIO/4du1KkQpKFbeUpa8qLUE8DajVakSsXM0L4hczg+A/emSpIOo4kXcKXe1s8OKLprwg1jUFisI6F8Raw9gUZjbv4Zv/Tnl0Ay3SPoGYMpxbK8T3u7OglbVCJAY7o6OdG/qPHA1fbvF0Q0f3z5B4mYv/C9+3s4bvD/zOSJzZHzZ2DrCZuR2KKtMSxNPD/oOZvMs8dJAnunSyEkLLExuXgPhtSbhxg3s/r27hBPHLb77jXeZ6L4himnV+lKPPJrB16KldlV+B7rQ812U4Fq1g1uQv3PIDPnVjgec2YHXqebZiBpuQQAx5jd8Vtt6B+CJkJr5wa8u734bTEsTTw8k87QhqX/fe/F99+Azxum9p385SiK09dILIeXUTPxrdcARR4JG+kiNp2ky7kqNglh6HGfp8FIQRb/eEizO39MMI7358zD7WsEBb9Jn4Hjw68EGwcHsPEyZ+iAnDXwczdqtISxBPDyfzT6FpkyYwNTURQsrDudU+g5kQVlg6tLMQ9qgdOEEM/ea/uKFU8v2VvZx7CDENh0cqigqFYMHZSiHVrgGqU0hc8hl832Pu73ufYUFNrLyHSUsQTxDXrythYiIYHdVg3/4MflDmxMlTQkjtcCDjLyiVKl6g21vWruA+Kh6hKJ5HTtoxfk3aua1WFNXH8P2Y/hj33X6Y2LwJd9eOZWJZFQ+TliCeMNq2bY3LBQqUlFRvpPGvozn8aLWJyQtCSO3wjlc/ePZzR9GtW0x0F+OcrOEZKo9IFFXI/+U7Zslx669jQt/X+VDk7sKCLPb37WmYHcLcYuYaj3Vrq43Tg6pINGpdw7QE8STTzqIN/9rNzl1pQkjlcK5t1uGjkDz3HFq9XLvvDHK8P3IYL4y3b9/m309saMJYh6L4FxYHcW7taLzl5IC3Zm6FAmZw+TQEY4WBExhL+Nd08Fcqdqbux74/1mHBz8LrN6WYwcpG+27ivu8+widh8xE8dxcU1UpLEE8Hfd3fROPGjRETG8+LniF+/l8M/yI3J1x1BSeMHu69G6Qw1qEoFiKfe3dw737kK9rCwes9zPslHjEfi17cfu0dTP+oJ6SKrfh8LBPQr/fD2uO9+9xg28HfYIIzE0bFKcQtX4UU5b/VTksQTwMWzH0eOXwIL3bcQMc5+f0ipP73X/7XLhmZh/mf/PkMGSjE1A3+748oJ4ynzpwTYuo39eK3z2qVCsXsr7GJieFfunAvbzc2galop2qnJYingI2btyFuWxKeeQboamuDli81R5MmTfhR4bz80/y7jNx7jJ9M+AAtWjQXUtUtP//vV+xI2YPnjY0xd/aM+vUzPz3QByEI4gmDsxLXRm/A8RP5fD+jDu6jEO94vQ0Pt178KzqPkhVR63Dh0mXMnhmERo34b3bVGiSKBEFUi1u3bvO/d+asQ+7LOBV/9vco4cT59u1iZrU+L4TUHiSKBEEQImpbFB/py9sEQRD1HRJFgiAIESSKBEEQIkgUCYIgRNBAC0EQDRrdQIu5tHa+yk+WIkEQhAgSRYIgngiMn3uuVhYSRYIgCBEkigRBECJIFAmCIESQKBIEQYggUSQIghBBokgQBCGCRJEgCEIEiSJBEIQIEkWCIAgRJIoEQRAiSBQJgiBEkCgSBEGIIFEkCIIQofd7ihZt2wohBEEQ9Rtet2Ry2HXuJIQ8HHpF0b5rVyGEIAiifsPpVt6Zs2jzcu1Msk/uM0EQhAgSRYIgCBEkigRBECJIFAmCIESQKBIEQYggUSQIghBBokgQBCGCRJEgCEIEiSJBEIQIEkWCIAgRJIoEQRAial8UM5fBvHX7ssXZG0HhScgrEuKrQC3PQvYltbBFEATxaKkjSzEYCRfPooAtsm1z4XTmC3iHxEMmxBoie6M3wg+ohC2CIIhHS527z5IWNvALWwKfPfOwfh9nAaqQHbcWYSET4TPCD0HzYnDoGrenCnkp8diWCchS1iAyYiWiM1VQX0pHdMTXCGL7+kyYjcjEfOi1I1X5SAifUSFPRkkh0mKE9EHLkHBcJ7gqHIrRHkOHMjMGkTFZUArrUfvkUB5PQlQEy4/fTVv20CDuGGuRfFYoifjYnFVMmk4QDZZH06fY1BpOvQtx6KyCbSjZPwsMDFyAqO+/gkejGHgtTOWFCBIJJCWAqYUt7LrZwK61BMUX1TDt4YuQFcsRPt4KR0OmICqX21mMCslhHohtMRqRbL+goVJIeL0qRMK0AQjLtsKohSz9eybYNmIsFh/hItVMfL9GsrxMYtXyVISmyHnR5dZD5s9G6JocQYRZXpP7wG+zCk7DPoGPmxVe5GLUuVg86lOkdeCOvQT+0kR4B8ZUyyomCKL+8YgGWsxg3gFIUxSydQu4DnGDnYUJTKVW8OrnDlxjFiFMYO3igM6mTBStHeDq4gy7VhKYOrjBy8EKUhMTWDp4om+PXKiLtbmWoYaKWYamplLtfjYs/1Ys+GwKojZ6IuhTXziy41k6jEbIdGOE/ZquFeGqaD0EIWHBCAhk6a9xebljfvgn8GJl48rn2N4E6gNxCGs9BkFDbNixzWA3zBc+KenI5vSfIIgGxyMSxUIUnAFcpWZsXY28xGVad5ZzN1cwf9kQ17IQJbjaPhPmIfa0EF4OM3hN/grF3w+AnfsULGYuNi96V5nrDCleNOF34rG0tgcO5dfckuPzsoB5C2FbQHlNDmSvQYBQH58xi5AAU0iMhR0IgmhQPBpRLMpDxh4z9OpiAeSuRcB3xfCJiEbsr9GYP8pG2EkfKiTM9UZa91mIZvvG/hAML0shqgISG+a+pmQgbcUQ4NeR8IvKBxqDSWJ5s1JRwETsFSke7Bu995moWgYEa8vHL5uQcfEreIiEmCCIhkOdiyL3ik1UyBTE9v4c3g7MsrooR/ZLFrAULK7iovKjEhIJ20epc27lkOUw666VFCwYuKti+/MR91Oi/WNq5QbvQQ44VMD81y728JOmYsc+3THkSNsWD8cezNVl7rqUabTsos7PVaOAufGVYmuPqdIYrNrIRFWEtLsbPDbGIEEcLJSFIIiGRx2J4iJ4Ce8pWvrOQ3aXJdj53WBwRp6p8xCE3F0En0HM1Rz0AcLzJXDVJmKYwXXIaMhCPPi0AVulzC32RcJkL+aaerP1dKiYkN1PLiL79YLrcJbncA94fWeKqPecmcI6Y9p6X+RN7wondjwvZ2+sb/UzIv2tWBoJnDyDIZk3lk/nNehTpBVZMbGsBD6vSVB/10t4B9MJQYmFQHtfhC2UYv0gp9LjO/VbiWwhGUEQDYvHNnGVWsWsMhMTrQVYFWoVlCUmMG0qbFcCl2cxy9HUpGKuaihVaqCRnjy4vNX60lQOX/YmrOzMPS9DOIbe4xMEUVfoJq5a8sNPQsjD8YgGWu5HUl1B5JBULYgcXJ76BYkTqkry4PKuoYjxZS8niBzCMUgQCaJB89hEkSAIoj5CokgQBCGCRJEgCEIEiSJBEIQIEkWCIAgRJIoEQRAiSBQJgiBEkCgSBEGIqNVftGxP2Y1tSTtx584dIYQgCKJqjIyMMLB/H/Rzf1MIqT61/YuWWhXFyZ/OxpyZQXipRXMhhCAIomquXruOL+eH4/sFXwkh1ade/8yPsxBJEAmCqCmcbtQXD5P6FAmCIESQKBIEQYggUSQIghBBokgQBCHiiRBF7qOvSu08pDyyHSsRuaP8tAG1gioL0RGpj236UvG81ARB1BHcKzm65fqNG5rMI0c0D8rEqTOFNQMcWqqRthqgCT9ULASUUbx7nsa2VTsWJwQY4p88TezcsRpHtr9UWGynJmoKWFTGd2z7u0ztfrXJxTjNB62WajI0Ss22qe00fX7MESI4ZJrYqSM13uXCFJrY8e003utkwrZ+imWZmqMX72+PihRsnqCRjo/j60gQTxrV0g89lJSUaP7Oyy/VsYddHpOlmIuw8LgKFpccsStWonrTJcuxKWQkwq72R1TOCRRcPMuWE0j70q3yOVZqFRM4vdkf2Sk5ZXVQ5GJHTDrSxGGqHGRstYFHd70Ty5SSvdEb4QcMTJpFEMQj4/GIouc4BGARovaU+bxK5vKGmc1C6CDttvpIPCLXl3cVefdxYy5U+2IwZ88QhM/zhV0L3ef/DcyNospHQsRs+I/wg3/IWqTplJd3h2NwqFSPVDgUsxLRmbqAsjmquXTJp8tKw83i57onFyeFXdXHM7Ep8BNMPS6aCD8vF9tshsDVhpU9Nx5RC7Vl8An6GtEHuYQq5KXEY1smc/lT1iAyQnTsIjmSYxYhZMJEhCxkZbymDeamWZVlsrbh58KegcV76qCbgCCqCTPUsH3nbvy2aYveZcOmrbhw8bKwd8Pg8YhiY1v4B41B2sK1wqx3uYj+PgeBH/UvnY9ZYiHByelLkXBWCEAhdq6YgZNNLXAuNxWK3g7oVI15W6DOxeJRIxF91w0h3y9BSG8FwvpNQcIlFscJz7xUyEqnTVUzcfoayXKtWCu2fgrvCAV6fbEE4YG2UOxIQgYfw2hvCw8bJrCHtfueZGLoZeuLXsPikXFcG5admQgMcIAdW1feACwHjEP4iiWY30+C9UMWIZnTP4kEkhLA1MIWdt1sYNeaCTtX5hG9EJ5tgT6jR8PLWQqJ7vlxgIlovhk8guayB0gxVo1Yqc2HIB4DJ/JOYeXP63jx07dwwrjl9z+EvRsGj22gxdhhNIKsViB6hwqKuKWI6BEMfxtjIZbRwg0+k3KQcECwhC6lY9uBT+DjbgJ1US7QQVotV1l9IA5hxeMxc5IbrKVmsPachBAmXOFbWR4GYYK5Ph4+02fB28aMiZY9/Cb4wkmIBWzgOtwGsUfy2boceQcAJ2sLdLLtj7TjurBc+DhoJ/u3dBnMRNSCWbNcGdzRFwqoikxg7eKAzqZMFK0d4OriDLtWEqHMszCfWcIeLMzVxY2F89kAPXwR6OvM18VumC98+HyEOIJ4xHSyegXtLQ13D/V16y2sNQwe4+izCbw+Go+jC6Yg6Ac1Qt5zrjC7nwROvX1xdGs630cn2xMH2XhPuLKdJI3NgDOKavU/Kq8xUX1FWmqBcvladumPbJbe8ChuIRR7gBebVuKSM+wcPIF9OZAx9zwj0xNOTP+kTNxwIF8bljgart216dX5SVgcxFxn3n1eUWZx6uH+MleCxBgvCqsE8Th49tlnMeXjj/i/zwhhYgZ69oVVxw7CVsPgMYoiw2Y0QgaoIRkeDJ/2QpgIiYsnAgvikXZWjrStCvi8qbW6OnUbAuzJwcmyLsnKacREibmnxcImh/JSJlMvUzADzQAsHTNFb98VNvVhaw+fPak4lJKLbZ42sObCbBzQJzGThaUjaowbnEy4wFxEBSzF7aHLEftrNGLnj4YtF2yICmUmiPpK2zatMfQdT5R+WUbArOVLGDl8qLDVcHi8osiExzUoGlHjbSpYiTpsmDUpQdR3i5CA0fDSaiIkvYcg1GIZwubGI/uaThnVUCpU7P/ySO2c4ZGYiDTdeERRFrZtAfy7WTEX3QyWzM0t0A1iqBW4UWo+WsHR1wzR21NLLUqlvIJ1KbGF65gkrP81HU4OVoLIWsFpTCLCFsTBq4etNkylgCzXFO0seYVkZVBB3A0oYZVXKssP4ngkrsEmfjCGIOo/w4YMxMvm5Tu0Jgd8hOeeMxK2Gg6PWRSrxrKvL+w2xkM6ypMJmA4bBKxPgM+1pfCz7Qzz1u3Z0hmuI2JwksVadxsNy4XeMA/PAtr7ImyNBWIHOcF1uB9cXaYgb+RqhLozgZI4YOB0CUJHecBnuDe8gtKh6sBccx4m2JN/xIdHPkWn1r3g5O6BmdvlEPV6Mkx4Fz9tjxJOr+r6VUzQydYasrPW8Ogu5GXiDJ8QIMzPmz/OqO/zmbBro9jzFK5DRkMW4sHXI2BroVBmB+wd31WoWy9EHhF2J4h6SOPGjTEp4ENhC3jb4y106cwMjwZIrX5PMSAoBJHhYcJWLaFOR2iHeDjlfAuvFkJYOZiFqGL2ocQEpvrNTS0lbL9b+vfjfhFT3IiFVzKazcXDxKQSa7YGMAtR2biKclag1o5NEI+A2LgE5J8+gymB42BsXLOr9kH1Q/c9xTYvV9kLXy3qsaXIiV0h0iIWIXbSYHjoFUQO7v3EaghN48r3k3DhBl7v4eJrRZSa1kwQOWrt2ATxCPAZ4oUZ0z6psSDWJ+qvKKrSETF+CsJlQxA9ueLINEEQRN1Qf0XRxA0h3Eht+GjYVeclbYIgiFqg3g+0EARBPEpIFAmCIESQKBIEQYggUSQIghBBokgQBCGCRJEgCEJErYqikZERP9M/QRBETeB0g9OP+kCt/sxve8pubEvaWW9m+icIomHACeLA/n3Qz/1NIaT61PbP/GpVFAmCIB41T9FvnwmCIB49JIoEQRAiSBQJgiBEkCgSBEGIIFEkCIIQQaJIEAQhgkSRIAhCBIkiQRCECBJFgiAIEQ1aFGU7ViJyh25CZ4IgiIen9kUxcxm0cxULi7M3gsKTkFckxFeBWp6F7EsVp7TXjyLna4TmFApbBEEQD08dWYrBSLh4FgVskW2bC6czX8A7JB4yIdYQ2Ru9EX5AJWwRBEE8WurcfZa0sIFf2BL47JmH9fs4C1CF7Li1CAuZCJ8RfgiaF4ND17g9VchLice2TOYWp6xBZMRKRGeqoL6UjuiIrxHE9vWZMBuRifkoZ0cWy5EWo40PmhePbJ2eqgtZ+EqEBrF0IyYiJEJkrSrSEcUfnwtPhUyXoSofCeEztOXirFvSZoJ46ng0fYpNreHUuxCHzirYhpL9s8DAwAWI+v4reDSKgdfCVBbGkEggKQFMLWxh180Gdq0lKL6ohmkPX4SsWI7w8VY4GjIFUbnczgLpmZC1ZfF8XmvgMWolsrlwtRzFJg4YFbIcUQvHw/r4FwhYzyXMReSoryFzn4WoFXPh38OUm3efLblYPOpTpHUYjcgVS+AvTYR3YEy1rFuCIJ4cHtFAixnMOwBpCq7/zwKuQ9xgZ2ECU6kVvPq5A9eYRQgTWLs4oDPTKFNrB7i6OMOulQSmDm7wcrCC1MQElg6e6NsjF+piba487kPg58LiubymBSMgcwV2HmHhJvbw8LSHtZQdx8IeA90dkF3Eqx8zIk1h3sIUpiZmsHawh6UJCz0Qh7DWYxA0xIYdywx2w3zhk5KObE7HCYJ4anhEoliIgjOAq9SMrauRl7hM6w5zbuoK5i8b4lqW4Opy7vM8xJ4WwvUhsUBXTya8zNrk3PFDUbPhzx9nIuZs1o1S28N7oQ3SJnWF03uzEbVPO1CjvMbis9cgQCiXz5hFSIApJMZ8NEEQTwmPRhSL8pCxxwy9ulgw73UtAr4rhk9ENGJ/jcb8UTbCTvpQIWGuN9K6z0I02zf2h2B4WQpRelFBJmisMvFreB2wQega7jjLEdKPHVvAsu8srE8/gYQgG+TNH4CQFKHzcECw9jj8sgkZF5lLzqxIgiCeHupcFLlXbKJCpiC29+fwdmBidVGO7JcsYNlCG19cVH40QyJh+yj5HkaGHLIcJmKtpGDBwF0V25+PKOOqAkreMmTp9iViGz6Boy0gk7OEFhYw5xOqoVRXHDWRQOrAXOTehZAVKiHt7gaPjTFIEL/2KORLEMTTQx2J4iJ4Ce8pWvrOQ3aXJdj53WBwRp6p8xCE3F0En0HMRR30AcLzJXDVJmKYwXXIaMhCPPi0AVul8Jrsi4TJXsyl9Wbr6VCVGXw8HshEUO9ecHV3QqfpufBZNQmuTAjtPCfB7/cp6DPcD16DpiBNKSRUpCLIuRe8OBd5UC98cDAYQQNZXHtfhC2UYv0gJ7iyND7DPeDUTxi0IQjiqeGxzdGiVjHLzcREawFWBbPylCUmMG0qbOtBf37MQmTBpib3H4Xbv5jtfX8cl4YbkNEXRxBEfeOJmaNFUl1B5JAYFkQO/flVLmzc/vrjuDSVxREE8aTz2ESRIAiiPkKiSBAEIYJEkSAIQgSJIkEQhAgSRYIgCBEkigRBECJIFAmCIESQKBIEQYio1V+0bE/ZjW1JO3Hnzh0hhCAIomqMjIwwsH8f9HN/UwipPrX9i5ZaFcXJn87GnJlBeKlFcyGEIAiiaq5eu44v54fj+wVfCSHVp17/zI+zEEkQCYKoKZxu1BcPk/oUCYIgRJAoEgRBiCBRJAiCEEGiSBAEIYJEkSAIQkTDE0VFPvL4yfMfP7Id2gn7ieqjTPkaPvOEeb5rgew1ExGwRjwRePVRZsYgMiar1spCPBk8PlE8GwOf1u3hs148U1RVqJAQ5gHXuUmVXsiKuIkwnxAPw9M1F2LTBO0cMvqWxVXMuqpDkfM1kuXc1AX1E27SsOxL9al8ciRErUSnHg4wFUIq5VouEsInwomdD/847TS096FOx7ZwObo6GpoRsnLU8lSEpshRqy0kj0dAdwNlJuo9j00Us39fC+Nhg6FcnVSDyaFM4DX/KE7O71/1TWUQM3j/eBYFF7llE0JYSMhW3fZZTHXQ7tXQyd7ojfAD9ciSPZuO2JxP4NW7inljj6yE67BFSDN1g3dvIUwP6gOpWGw7Gl4Ppol1gBzRIfOQJmwRDZPHJIq5SNsshde0YPi/FIc0sfejykJ0VDryjichkpsEf8JsRLKnuQ7ZnhhE76mBdanKR0KEdlJ8/5C1SDNsQhqmdGL+GVgcl4uCClOgKvatRcgEP77M2kn25UhesRKbcsW2SD6SIwyXQ3kkHlHzZsAn6GtE7WCWDNcmETE4VKpvKhyKEbnuinShXBMREpEKmVqFvJR4bGMWryxlDSIjyvZV6tqV25e1s0JXB6HdZSyvaO7YLD40Lh9KUfsFhbN4YXeUFCItSk+76vLh0jGrUNy9wD0IT/o6w0lSRbvYjENays8I83dH50qffiokb14Jj0HO/CyR+s+zmj0YVgrnQgdru/UrkXBcj33I5RHO1X0GQmPSkb2PXWui8ivYdmgQO7/c+U9kbSOE68heMQXre8xFSA8h4ClAo9Fg+87d+G3TFr3Lhk1bceHiZWHvhsFjEUX1vkREmPeHa3sLuA4yRcSW9DIXpojdMJ9PQegOwDVwAcLHW+HoNG+E7NBenJzLGppTTddEnYvFo0Yi+q4bQr5fgpDeCoT1m4KES0J8TeDyGjMBO1uPRviKYHiZMKtnsxDHUGydAq8VKnh9vhxRn7uhYP4AhO2TwrwkDnO2ZJbVLzMJQZvVMJUK2xXg8nEdEweVw2AEDXNDJyYKxVybzGNiVzrntZqJnc51z0XkqK8hc5+FqBVz4d+DJeCCJRJImOCZWtjCrpsN7FpLoD6yDH4jYqDuG4zI74PhWrAIfaYlabsahHYPiVHBbswsvt0zAkfCf2468OY4zJ/nC+M1fojkz0MhEtg5iSzqj9AVyxHal2tXZtlxx+XzWYSQOWtxtJjLWEcWdq4AAt9xhgQWhtulsTbIIJdSERvjC7++FgbOswSWTfMREplSJuYsXcT0fEBacWIyZuUFeiCi2A3zWduMasu2588o7R7hzkuf+bno9N63iFroC5PEkfBbmltafnXmMszc6on5kxxgLIQ9DZzIO4WVP6/jxU/fwgnjlt//EPZuGDwGUVQjg1l7XYUnvKXLYHRlT+WM0ruDwwE+w/rDzsIElg6jETLdGlFbmVUjxFYX9YE4hBWPx8xJbrCWmsHacxJChsUjfGvNO+b5vJoGI2wSK7cJy8t9HAKHC5GcRbg+HaMmfwJXVmZTCzeMGmGN6Kx82A0YLaqfGmnb16DrR6xufLqKcPnEwyNsCaZ6OsPVhS1vWFTRVaCGutAU5i1MYcqVy8Gelc8E1i4OvJVlau3A52PXCsjYugjqwGBMdbeCVGrFW+o+G5citrQ5RO3u7o6+TPx6jeDcUwtIrZiFxyyggiJWkbMpiNrjiyC+Lbh9fTGqC7NkjwvZQAqfT79CSOA4+DloXWX1vhSsMhsCV8HVrVm73I9sTxwSxrAHawvh3FRynk3dB2NqThLSzpaly5g0GB4sXTlykxCVMg4h0/pr83DxhY+7ECecl4GTg1l92PmwsIc/azvjsBjs5Z4RRVmIDM3EqKXjql3+J4VOVq+gvWWFydgr0NfNQB9IPeTRi6I6E8lLLWDLXKi0felIuwBYmyxDwp4yN6Uiltb2LF051WRkYbF4gETP4IryGnOzX2HWmrDNTV9q2aU/ss8oDI448oM1ory5gRc+L1PjSqyAQij2ABvnc66VdglalQdzzhhp7wwvW3bzHGLlZ3XfG+OutW70ll+bTztpFX1u5bCH90IbpE3qCqf3dG67PlRQsCpYSkUmqsQCXT1zIbtYedvr5SpzncGESKgr505GHJdCUqmFp8LebcvKi16l7VIdcpHwUw6mDnTmHxgGz7PEAb18c5BwgOtyYdfcVoVgrVagmLnaLDdjvTPbas+LeQvReWlvDUdkIo9ZkocivsDRMV/Br70Q9xTx7LPPYsrHH/F/nxHCxAz07Aurjh2ErYbBIxdFZUo8Ih2sgYu5yD7CLSpImHUT9Xt65SPKBdwFXRF7BBw/ipO6ZWF/Zp9UoBG7wpkLKfbilJeYwkmZVSVs60PquaAsX7YEdGOBevIqjzUCF0Yj9ldhSclA8njOLLKA1yh3LE7NhPJQOqLd3HjrxlD5b98VVqqJZd9ZWJ9+AglBNshjbntIin6RYx41q4O4BirIWHOUu9mrS5dxCNfVlS1phxMQUNmAx7V0JKzpD5/eYtGrrF2qQW46YgvHoK+LoGAGz7MEru+MR8HmdMjOsnIUlFmr5WCCLmVXINNGPbD82ckpd14UCuaSc90ASYgIZyI9uZfwgHNCwFYgIdAJ5uFZws5PNm3btMbQdzxR+rktAbOWL2Hk8KHCVsPhkYti2vYYeH0YzLtWAcISMsUXHjFx2Fna16fCjWvC1VnCXJdtzKV0t79P9LQT2usW4QYRIbVzhkdiItJ0msrcnG1bAP9uVkJAJXCT74vy5iwgbV5xSM4X9lEXMgtLWIcNHCflYf3mCu+8CYMYvAu3MR7zWT38hrmVCvL95efyMUP0unjIhLQ8LcxgyaycAt37mWoFbtz3BJFA6sBcvt6sXIXaSE4ElUrdjmawc3FDwg4mDkLe6oOJ2IbRsGXPqBpha4+px2Ow6WD1LEzZjhhE+w5BH+bCi6msXQzDXO0tK4DxbsxS01LlebbpD//G7GH8YxJQmYvezQ2BDisRGcENEjGrOj8JO1KEOFjB0dcMO3eXPbg5N3yTgzPsug1GlPDWgnbJQOQgwCsiAwVBzMN5Shg2ZCBeNi9/h04O+AjPPWckbDUcHrkoRsf0x8AeZsKWQHt3+AxKQmzpqLISO7//AHbOveBk6Y0Ik+UI862uayWivS/C1lggdpATXIf7wdVlCvJGrkao+wNYRlxeP0oR2bs9Xy7XD1fgqFpXD2aNTF4Nn+NT0MnZm3cpvdg+QamCK8u7cCmIOjQaA3XWjV60+QSpF7F6a91qu6AkKFj6gdMlCB3lAZ/h3vAKSoeqg3BsRSqC2LG8ODd2UC98cDAYQQO5tjKD65DRkIV48PkEbC2Epe9XWN8qHl6OXD4ecJyaD7/1s+BR0+aQOGPa+iE4OpW57IM499kbTs4zkKy305dzWVMRMFSP6FW7XUTwrrY1/AeIzL0qzzM3oCdB1BppORddau0M1wNTYMd3XdggYM0muMqWIWj8RIRtN0FnZ2FH4bz45c/Qnl/Wzl4xFlgfMZr5BwRH48aNMSngQ2ELeNvjLXTpXIXxUU+p1Y/MBgSFIDI8TNh6QC7Fw98hEQMzl8O7hQrKEmZFNRXiHpQSNZS3mOXJWYDVvPcqhctLLam8TEWszMzNMm6itTAfGPX9dVczC6a4kf724OPYzavPYr4PXRk5K1gIelCqPG7uSniMUiL0QDBcH/ZgDGUiE6b19shY56t9FUdMbZ5n5q0kBHXFNnfO8it7iNeonZ9CYuMSkH/6DKYwD9BYfwdtpTyoftTrj8zWOtzF/bCCyNGYu4hr40ZhcHkZKlNTdhxObB5GEDn01J13tys5ttYVr2YFdWUUNh+Gqo6bfSgHlkGetSKInFBlZMoR4O95vyByPNR5ViF7Tyqy5eyBoSpEdtwiRKSOho9Lea+mRu38FOIzxAszpn1SY0GsT9Q/UWxqAY/P3WBZG2JIPHbsxixB1JjKRmBqigm7NqIfrPujSpigqvMRPW8i/MdPQfgBK4Rs/+r+V3eIJ576J4om9vAL9IVjXVz3BFEpElj2HYewH7Wj6VFho+F63+sMxNNA/XafCYIgHjEkigRBECJIFAmCIESQKBIEQYggUSQIghBRq6JoZGTEz/RPEARREzjd4PSjPlCrv2jZnrIb25J21puZ/gmCaBhwgjiwfx/0c39TCKk+tf2LlloVRYIgiEfN0/UzP4IgiEcMiSJBEIQIEkWCIAgRJIoEQRAiSBQJgiBEkCgSBEGIIFEkCIIQQaJIEAQhgkSRIAhCBIkiQRCECL0/87No21YIIQiCqN/wuiWTw65zJyHk4dArinavviqEEARB1G843co/ew7t2rYRQh4Ocp8JgiBEkCgSBEGIIFEkCIIQQaJIEAQhgkSRIAhCBIkiQRCECBJFgiAIESSKBEEQIkgUCYIgRJAoEgRBiKCf+RH1kmtKJa6z5Z6m9PIk6phnn3kGzU1N0YItDYna/pkfiSJRLzklk6GjpSU/STrxaLhz505puzck6LfPxFMBZyGSID5auPYmy5xEkSAIohwkigRBECJIFAmCIESQKBIEQYion6J4dB183xuN1UeFbb0UYufc0fCduwsKIaRhUQvlLylETvpfkBcJ2wRRT4iNT4DfB4H8Mnn659A0oAGc2hXFrAi0bWdtcBm3pVDY2QAlKuzbux+qEmG7Em5e2o99l24KWw2Phy2/cmc4+o98F1/trEabEqUU/6PCjZu3UHxPCCBqBZn8AubMW4i0/QexI2UPjI0lMJea4cqVa4iJ3YIVP6/DloTtwt71l9oVxa4fIjc7s3RZ8zELe/sb7BKFLXrbTLsv8dCY9glC0i+/YXYfatOquYVTezdh6fJILF67Hsv/twaL2fqGPCG6FikuyENWtgw3hO2ngfMXLmHu/HDknTqDiBWrcfPmP/jg/RH4fMZUtHypBRPDP7BrTzp+3RiHzVsShVT1k9oVxcYSmJqYlC4vSrgwY5iIwky5MIZaVYj8LGYppR+DXKXWBupDreL3yzylgoG9ysPSyI+xvLNOQakvkZAnF6+o0vVUQ6k4hcx0tv+x8/flp1apysKKtHWqtKxF55m7ux8556tRF1ZGJcv7vv1KWHm4cN6KNoGFbUdIhTYtg+1z/hhr27+Qf02Ug748y+WnQxsmrquaz6+aZa+HXNi7GRuyC1DE2qzNaw7o18sB3dq3gXkdvAp54mAytu89jHPCdm3xV24u0jIyKlkO4er1xyfDP0b9D7du38bH4z+Ar887mD1zGno598BLLZpj3uwZfFjQJ+PRob0lNmzeikuXC4SU9Y/H0Kd4DD/2c0ZHO2e8NXQ0fEcORk87N4zZcEqILyM7+jP07OTA7zfY3QE9R4Zj3zUhshLkO+fD19UBg6dG4vuZ78Om07v4PLXMvVQzF5+Lf2tqOL6f+xHsX3PG95X1XR5dhbecbGHj1B+DR7KyerrBxnUcfi0taiESZzrA7btVWD2pP59XaVmDtpfrK5QnsLq85sbc3dHo78LVJRSbzwiR+ji1Ab52/bEkvbwEKXd+CRu7+UhRsQ1WPhs7B/woLv/5XZg7kpVz6DR8vzQE775ui8FzhH7L3HVwY3n+mMXvyaPcPZ/PY+5uLkOBY+vYsd8X6nkeicFu6OjyEWYtjcQnQx3QsULd6j3qI0jJZfV7tjmcfUfh/bfegL3dG/Ac8A56t2fxFzKx4fcE7JGpcOrPZPwvdq9W0G7JsGfrr1gcFcWsyw3YknOdC2WocGJvAn5ey8LLxalx4a8/sP8yt891ZLE8N+z6W7AYmaX65xas5PaPWoOfd+Tgag3c9/OXLuOP3Xt48dO/ZODg4cPC3o8eJ/tufL8h92/wwP6w6tied6E5q/DKtWt8WNs2rXDmrAwvm0vR6mVzIWX94zGIYlsMjUrCqXN5OM8vOYifYoadwVuQKexRSrf3kHRK2C/jBwzIj8CkJbugFKLv49wGfO6/H7YLMpG1fS1itqdj1zxTrP50Hfbx2nIMq2eFQzk2Huf3/IaYzak4fyoVE17jU99P23fwv505QjnZcuw3TG65C8Hxfwk7aFHsOY8XA37DfmG/XfPegmJTPNL5m4PBlStwA2znJSFX2Gd/+HBYCdF6ee1tjO1ViF/TskSWmQrpOzZA+vEguLcQgspxHr9+Pg77un6D3IwkxPyShKyUOXhx9WdYzYmrfU+MlRbi96xjwv5q5BxcB6nUDKuPlD2U5Ed2I+e1d+DC2kW5cxXGbeiJlRmsLX9Zi10ZeTg1701IhX0bBGfP4wInQGav4o3m2qByKC/gFLtZ039fjw1ZebhQcB037hVge2wC0pn6v/KaLV4xuolje7Yg8QKXoADHTt5E45bmaPNySzS9c4XF/YE9N5nwnbqAf+5y+9zCVWYNXbhyE9zmhT3MUs26Ambaw95CAmXeXkTv4TOrFm2YiEhbviRs6ae7TWUXct2StCMVm7cm4ZlnnsErzBLkfnY3e95C/Py/X3mr8PMvv8WfGVm8EFpatMHlAgV+WPEzrl7TPWTqF49BFE0gbWuCMo9PAodeb7G/+ZDrRETAjp1k08bChrQfJkzrCcXqP5FTif+Ws2MddvZ6D2PdTIQQwMrtHXgq8lHItz9z37nrSqWAQucuMpdfojtGRVqYwcJE5Js2fR19+rK/+efLW0od7OH8WlmdrGxeZ/9vh+yidluevhU78SHGvtsRup/aS162gV0HYUMvbeEymInrD7txSFffy7uxaYMZRrjai9pPxLE/sDqVCZ/fW6XHQce3MPTtQuRd4SzB1+HynhlyduVCzkceQ+amnpg87T1Id2Qhhw87j31/sAeLT0/Ysi3j57gjKVFwvcySlDTVe/T6C7tJeZ57DsbaNf2Yv4FJ4wIwM/AddDtzGEdvMjGyH4p3/vMG3uljjReZ0J2TcReSNYZ+OALvD/DCcGZtDrBuwsLuovh2c/Qe9g66NuUya4O+/v6YOuwNvITTOHiCtZ+5A97v+wZ69/XAa82AogvncJXbtRpwgvNO3778X304deuGVtLH86jaGLeN/930sCED0brVy0jZvY+3CPu6v4nA8WP5fbYl7uD/Bnw0Bs2avYB9+zP4feojj0EUGYq/ELd6PoLfG43gMOZ6JucLEYYxkXZk/8sFgbsfdRGzgE6s4vPlXunhl+k/aC1QXgSZlTotCKabxsHe/V0EL9mKzCr8QEXWVqwO+4zl9RnmLl+H36tX1HIoFPuBXh1hWUMtsegzHCOwCikHtaqoOJiExNc+xADnSjIqZpYfe7gsnymqPyv3Ys6wLdHm4cAeGtK9u5DJPYCOZeH3lm/C0ft1DD3GrEPOZ7z8F3amvoahzlqrQ8L2Xzn8GD7v1x9v+X/JRPd85ZZ6fefff1EsrOqlcRM0FfoYb1y9zl8yF/ZHYX5EJOZvzBENnAiDNqtWYNHKKGz4+5YQXgk3r+DKHfa3IB2LubwiNiDrAV46aNm8OXo62AtbZZg2a4Y3e7whbD161Go1pGYvoZdLD377n3+0HfXWVh3Qw/F1NGnyPFQqbYXbtH4Zzj0c+fV/mZDWRx69KF7ejk+83sXPOW3RJzAAQ998DeZN/hUia4HXP8TXEcuwQrf8+BtSs8Pg2VYbLbEPRExaOpJmvQPjv77DYKd3MTdd1J8mQpEwDf2H/g85rd7C5EDmsnaVwrSK679WafEmhn5shh95F7oQ6Unb0cf/bd6Cq5zXMTFUVH+2xO/MxCIvoQF4F3o7DuWqeDdZ0d8ethIbOL+/HzuPFEKZm8WEV+s6a2kLz0WpyE35L6Z2U2L1p25w89/ApLcBYfEys9YYhadwtJrn78UXOOuPGXf2wzHx/VGly/uOzVF8JIkftDHq2B8fjRgGT95SNAATrRe4vy0d8IEor4lDe2jLVQNcHB35z3uJGeTRB40bV+bu1D2mrDyXCwoxe+5CKJn4deuqvXi4UeiAqTNx69Zt9HDSivnP/4vBH8m7+PVmL/CtUu945KKoyExCnKIfPgh+D57OPeHCFs9enLtZNfK8LOZG23DXuF6k0p7AX+zGFo92C0s520piBtu338O81UlYM/Yv/LjhTz0DB4XITN4Khdf7+HRsP76cLs7sb/WKWg6+XHv/Qk4Vg0T3I4GLB7PsljMX+sQubE7oh6G9BHHTx0tmcMFfUBTdX3/dqD/wGhyGm2H1wT+w7+B+DLXnLmAT2L3RD4m5fyH94LpS11mMaceeGDLlO+z6dQ6sd4bjd4Mv1tczmnWDS3vWAPcKkLJ2Pf63Yy/Ss/Ziy+9bsPmvStwOizYwZ3dHQe4eHL3OPbT/xdULeTjPdi9iNzmH5IUX8cJzt3H1urg/pxEa83fVFRzdl4OsEwXMOm2DdpxneyUH23Nv8H3E6usXcOxSJcc2QKNnn+VFUIe9rS3atmolbD0eli6ah/593XBDqcSJvFN4pX07ZkR8hFc6tEOT55+HV38PjPL15vfdf/AQzFq+hB+XLoCdTRc+rL7xyEVRYsw95c7jpFx7IamZu/ZrvPbJUZGd8RuQeV77Gok8NRyzwo7BYcJbcBDiJdyNrlJCIbzSY+E2HJ6KcHy1YFfZrzy413Oyjgmix9ZPMdHUXcPq85Azl1Ha3kzPwIEEz3F9Q2fyhbzUzJXegM36i2oQvlzYgOXMXc9RcPUpRH4qyytD2MEQ9m9hwmursGDmBuwcPhhulTwQeNq9hZFehVgwNxw7z5dWEsrzTJBL+2slcHQdDummcCzYNAiOnbVqKe32Flw2heGrTWWuM4f6Mmsj0StTyrPnkcesUcsGNdIiwWv9h6JfexM0ZtfAhbwc7PkzB8fOXtC6tfpo5oB3uX7EOwVI38bO3f82YMOuTBxTsmdPN3u0Y81WcHA9Fv2cgBMavhNRoDm62baB8bNqXDiyF9sPneJfA3IewPUjsrCsBGYtrcfP23YhPb/mosjR2twcvd94A9bt2+Otnv8RQh8fXD8n9zoOx3PC597+wyxD7lWc75lg6gTx3r17MJYYQ/0ve8jU5x+4cB+Z1S3Xb9zQZB45ovn3339rZdm/sJ1G+lGs5ny58NOa+MkuGmkrFscWW5+vNL+t+Upj22qc5jeZsM+fi1lcsGbFxsWakf/R7idt5agZ+sV2zSlRXoV/zNI48HGLNft1YYeiNGNK02gXB7/1mmN8/N+aFT6OFeIiNfuvl+VZbjm9TTO53PFjNWu/ZOlL63RB89tHLK5iHfnyt9Ms+rMsrHy5XDQjv9ymWTtPT1o9y6n1Y/jjz9t1s3ycnuP8e+WwZsVHZe3LL/8Zo1mbLdrn5m7NvG4s/N31ovY8rFnah4X1idRklYZxbfyV0MbC0s1dM3nz6dL4ulpy8/I0dUOJ5h+VUnNdVaS5fVcIMkjZ/neEEJ67xXz4P/8K2/fB0hWVCOtl3Cni8jKU7vHCtbu+81HV8tPq9Zphoz7SjPv4/zTvfzRJ8/WCxRr5+QuaW7duaf73y0aNf0CQ5pNpn/H7BE6dqbl69ZrefB5kuX37tib77+OlOvawy2P78jb30nMxe4Kbikd3K4HfVyJ2AatGmz+jEUsnfpBzFDFrjR+QrM7xuReZmaVUw+NXBlcuNGHufF13AdWojlUhtAHD+FGUnZHHrsPXrAy+tETUAcfy82Hdrp2wVX2YnmLl6vX8r1baWbbF+QsX8aKpKb+edTibf0exQHEFpqbN8PmnUyE1aymkfHhq+8vbNB0BUS8hUXw8PKgocnDCePhoLl7vZsu/h8i9dsPBuddrVizBpcsKNGvWlBfL2oREkXgqIFF8PDyMKIopUBTinPwCrl27jvbtLNClU92dy9oWxUf/Sg5BEE883Ndx3nDozo9K16Ug1gUkigRBECJIFAmCIESQKBIEQYggUSQIghBBokjUS5595hn+yyvEo4Nrb67dn3bolRyiXnJNqcR1ttxrQBMeNXQ4QeQ+NtGilt8jrGvoPUWCIAgR9J4iQRBEHUKiSBAEIYJEkSAIQgSJIkEQhAgSRYIgCBEkigRBECJIFAmCIESQKBIEQYggUSQIghBBokgQBCGiVn/ml7xrLxJ37KIf8hMEUSOMjIzg2fcteLzVSwipPvX6t8//N2su5swMwkstmgshBEEQVXP12nV8OT8c//36CyGk+tTr3z5zFiIJIkEQNYXTjfriYVKfIkEQhAgSRYIgCBEkigRBECJIFAmCIEQ8dlFUq/+FUnVT2CIIgni8PDZRPPTXUSxcEompM+dg5pxv+L9rf9mIK9euC3vUJiW4cu4iVPe49ZvISYhBcn4JH/M4UeVuR1TKKdw/5lZ/yljKuf2ISjgBlbBZHVRyGa7UoyoQRHV4LKIYt+0PrFr7C06flaFDO0vY2XRB0yZNsP9gJub/dxlOnTkn7FkzVHsjERAUUn5Zuh+qv+Px1eKl2Pg3t5cM6cnHcfluYz4NJ0Cns2Q1utkrp2Z5nTqUihMqIxgJ22VULOPj5/RfqchgCmcibFfJtb1Y9l0kVuyqi4ccQdQdj1wUOQvxj527IDVrielTAvDp1AAEfjQGX8+egaGD+qPo1i3879dYYe+aIZPJAMexiAwPK1sm9YTJq4Px7by58LdhO126ADnaoUN7bRqc24sft+bgirD5UNQoLwXk5wHL1q2FbREVy/jYuQm5/CYs2ugpa2W06IXp8+Zguge9t0o0LBqFfPZZqLAOjUbDTytpbmYmhNSMxB2pGNjfQ9jSz/rfNuH6DSUCx43BK+0thVAtHZkKFBXdQu7fJ9D8RVNY1ugNdQX+3Pon7nUdAJd2EiFMiyo3Gb+deBa2HVrg3t97EXu5NYa6tcM/f+/Dti37cPJ2Ce5cPI0TJW1g2+p54N515OyIxU/rtmFb1nW06t4ZUiMFMjbuw/XWLaDYswPbLjfD65bNhCOU4HK18jqFqzebwbJjC0jUfyN5y2VYvNkO8q1r8WNiFlQt7fCaWWPcKS1jR7wgHOFKbirWrfsFv20/jKvm3WDL7XflMDas+gX/S/oThy8ArTpboPl9xmUx5Pt/x4p1sdiSloMzN55Bm/at8cLdU0iMOQHj117AyU2r8dOGNOT+2wZ2HU21luu9mzixJw4//7IFyYfzkH9WjY7u/dG1JZ8pD+f+r88oQcdOLaFt8RKcSN6A3ao2eO3OYazZo0T7V19GEy7q9kXsi1+HnzfswO6TjdHl9Rfw9+YtyG9ii/Yvsvh7MuyOTsK55mybm2FTzZXvT/zTtgOMcrfhhzXa8sthDtt2pmjE5Uk8UST8sROefd2ErerD6dY1pikvmlTbjzHII7UUuUEVnctcURB1/OcNe/5v/umz/N9qc+8iLl8xRiupTqjKOHGgzE2VX7zI1EOKl3Ebt9SN2VIMk/a2sHu1MxMxlvaeAonffYct6p4YPy0AfSX7EbtXwQovw8F9+xG1ZDV2F96GaVPxcQzn9b/z7TDi40mY7lCC3bsO4xKX5LKCOcm3sW/bfjz/lg9GtL+J5N9ScJpFlZVRy+XtS/HVH7fx5miWx1vPY3fcflxWH8aKsHhcdfTFrGlj4fOqFE3KPwsYxfhrzbdYuB/wYGlnDWmDUykZOPEvi7p8ArsObcey7+Mh6zwYH3tb4nJiPHZxZi5X7sUL8EPm83y6II82+PeeFBYVDEUTXEdGymFWD4EbrK0Sr6Fl++a4nLOXd7f5GYRv57KyrkZum8EImuaDzpe2YEsuE/rTh7HrBGtbxp2sFPx66DBOFPKbuJO9F1tYY7x4eh2+iLsGZ67847xgJzXW091AELXHIxXFYrWa//vCC7ztoBeTZlqxuV1czP+tNvKLOMVEYN/ysv7EKHbjcf1zMjmzQi05ERbcQMt2bL0ZXukuxXM3gc49esHJvjsTssaQJ6zGjhY+CBrUES2b3sEtFdCyRQvg7DmcerYdfKYF4eNRvvDpLhZF/Xmd2BiJLSaDEerfC6+0bIaSW9eA9u3wCkuhkp2DqmlHjJjgyyzb1njdlinOjWtQlisj48Lv+GFXc7wfMACd+TzYQcya46Wb16G8ZwILZvWZNGuOV+w7loqoDtXen7FC5oSpU9/B622aweS2CqoX28GCFb30+AFMUO1aMyFj+TBLD/dY3D5mlal74TM96cphzoTy3jVm/Wo3cxJTcKVHP7z5YglOya+jpYUlE7ASZKxfh0s9P8L4nuwYjW9DpWblb9EcLzOHpOQul/Imdu+5CZc3pLh0hRPJEhzMOgHbt93R7AbLvGlrdGQPGZOWlnDqLOUSEESd8UhF0dSkGSSS53Dh4mUh5H7OcgrGMHuJCVEN4G/ylm6YI+pP5PsQ1QpcvsFu3rbcXkw4zxrD0kLo57rCBPO2JRNM7SYnoAezbsK2YzNkbV+HL2f/hNMOAfB3bIwrTHRvt+8Mu4rCoKNiXsySSz5gBI+3HcGcaIZYKLT9n8937YnXtZFann+euZrly3g64zCUr7aDyeFUrFjwJcLPdcf0Ud1h1LIn3ul5B4mLvsHi7aeEkXUxF7Fjl4wJSz+8Ipzl01yfKzP3OFG+7/jMOr30bGtYSIV0fdzxsp505WAiZfn8dVxhWs9ZiYlZ7KHBHibcsS8zc9iiLRMw1g4Hc1uzh8R1JLOHxIyvU9Fk2Dj4tGHGMLOGryiYaXhhL3ab9MKbZoLvr9iL5LOOeNPRGC1d+sHlXiq+DP0JifmC+hJEHfJIRZHDvpsdrl2/ge0pu4WQMrivXfyxUxve1fY1/m91uXSJWRjMCqtoLWktPO5mZ+tX2M0qdgO5AY3nmZtaKnQ3cfVGY1zOO4HbbXojKPQzTO1nyYua/MJFPM8so0p7LSrmpWRicY+JhoWwzdx7uU4omNvJrXdk5dWRk3MKz9vZonOFMiqVN9G44BRy/m0Nj/Gz8O1EN7zCC5kxbN/9FN+H9IPRnp+wMIG53OW4jqvXmsPCQtfJWMyKeBMvt+UyVkDOdI4TJR0qhQK3eZe9YrqbOH1al64irJytbuJywU38Fb8dt/oOgAtXtpsXcPoGa/NWbJ2V/wpu43Q+az87H8z7Kgjv2WsF/6UX2d+7d5CzJwedXbrDwpy53ZcuImfnHhgxMbflrs7nO+O9WXMx17MxdvwQidgLfFKCqDMeuSgOeLsP//rN5q1JiIndgnPyC/zAy19Hc7Dw++U4JzuPFs2bw7pjByFFdbjOrJlidlPd71ppLTwmTtwGJ1xN25S6gZcvMSulWQu+3+tOCfdCXWM0Zi1i6TIAHjaWzNUrwZUrnHWiHSkWi1hF7s+Lg7m43Ps5924i438/Y7dOKO6dYyJbJjyqrHWIOtQCfft0vq+MRtwubXrC583OeOVFbnDlOlTM6rwjHMKoJbOobIxxRe8L8MxVvcH9LYE8cSXW5TNRbsPaiBNoBXP5SweKBMvR0hLacRRxutWIZcY7n+4+mrE6NMPlw7HYxNz09z2EfVhep59nliWXGWtPI/ZYed3DDS7M9TViInvlmrbwRqbN8Lx8O2KuMKtX97W6q8zi/NsWPr1Y2Vg7at/hbIyWPXrCnlmlSr5cBFF3PPLR5ybMRez4Snv+XURulDlt/0Hs3J2GzMPZzCpS8YJ47fp1nL9wCY723YRUVXDvBFI3nkLLPuVHRzlyd8XheIteeMeGuePPXMXRXbuRuP0yzPt0Red7hdi7dze2J+1E8qlmcOrRHR2fycb/YpOwd386EpOScfSeNVw6FCCVGyke0Audy3SkHC+UVMjLvTOeydmBuO0HkbL7b5j27IJbp5ui16DX0PLqGaQcPILDmQexK2U7Ek68gMGTxuHtVkxBKpTxdfNGyNwYj81//omUZLbvMeDV7iWI+2Ip1u9nYSz9gSsWeHdkP7RvKhSGpwUkV/ciNnE39u75E1df74FWOWpYD3FC+4Is/Pbnc+g5vCvaPMPtqx25b+QwFG+0aVl5uvsGcli9VacQm6qA84SxcBF6JS5n/o7dd2wxtIcFJE1a4YWCZKyLS8fefXux9Y+DuNziVbxhyQp7rwB/JudCOmA0erXW1j0zIQumPuPg2ZY9AI5G4//+uxm72LlI/iMLinYDMXqARemIPPFkUV9Gn2v1I7OTP53N9+VVl31/ZvCjzNygCteHyLnMnIW4fNX/cCTnGNt+FQEfjhb2fnTcuX0Tt0uYfdPUGEYPY0vfK8HtohI0riQf/jj3nodJU52rWgklxVDdvgOj55hlJRKmO0VcelbOZpWNyLLj37zNXFCWropDlOdB01VO1WWtBL4Nb+NOY9ZOtVUYol7CDY5+v+ArYav61OuPzNYUl/84YYzfcEz0fx8+g71KXeaJH77PC+LRnL8RuWotH/YoMWJiYMLdvA/bOs821opAJfnwx6lKEDkaG/Oj8mJB5DBqKpRT2L4f7vgPImwPmq5yqi5rJfBtyNKSIBKPiMcqiobgLEROGNtph40JgiAeCfVWFDk4YRzQz13YIgiCqHvqtSgSBEE8akgUCYIgRJAoEgRBiCBRJAiCEEGiSBAEIaJWRdHIyIif6Z8gCKImcLrB6Ud9oFZ/0ZK8ay8Sd+yqNzP9EwTRMOAE0bPvW/B4q5cQUn1q+xcttSqKBEEQj5on6md+BEEQ9Q0SRYIgCBEkigRBECJIFAmCIESQKBIEQYggUSQIghCh95Uci7b0DUOCIBoGvG7J5LDr3EkIeTjoPUWCIBo09J4iQRBEHUKiSBAEIYJEkSAIQgSJIkEQhAgSRYIgCBEkigRBECJIFAmCIESQKBIEQYggUSQIghDxVIqi+vIx7Evfj5zLaiHkfpSn9vP75F8TAgiCeCpokD/z831vtLCmB4+ZiBn7mrChH8WWj2E/aTs8l6Zj5TtmQmh5MpdYY/B3wKeb8zDZXgisNS5j15IfkPOfqfikx0vaoLu3UHTrDmBsiqbVmb/nTg7Wf5kEs8nB6CcVwoinhptFRbimVKJd69ZCSP2n6PZtXL5yBR0tLISQ2oF+5sfYt5dZcZUtysqtv/rCnaxN+PlUZ7ztqBXEwvQlmPJJCD6bNx/TJwdiyqp03LjLR5WjKHcFAj8IxOpctmFkCzcXJdZvSkeRNpp4SuAEMS3rL/z193H8c+uWEFoLqAuRuWE+xvS2Rtt21vg+SwivJQ4czUb2yTzky2RCSP2kQYri+XN52mVzkDZg2m9lYVNe14YVqaA49ZfWTT5vQCiLziMn/S/mJldTTNUq5Gcx8T12HuoSIUwHn5c2rnJtViJjdw7MPN+EdSO2WZyBmNVX4Pb5Eiz5NgwRywLx+pF1WHekwoyIt9Lx87LD5QSwtZMz2h9Ixr4rQgDxxMOJICeI6n//RfcuXfBCkyZCzMNyDN+7OmNw8CrsPCcE1TL/6doVxs89h5y8fJySyYXQ+kediKJGo0Fy6l7ExifoX+IScPFSgbB37aP44zPYv+YAe/d34TtyNPq72KLnnF1Mjsoj/+X/0PM1N/Qf+S7eet0NY1YfgyFplCd8hp6dHPDW0NHw9XRDR/fPkHheFMfnpY2z6RSBTG1UeYpzkXW0CV7vJLgQ/1xB4Z1WaCN40WhkgfaWzHq8oRICOJRI/zEGhcMHwU0I4WnZGa9LL+PIyYo1I55EOPdzb2ZWqSC2b1ObrrMJXObFY/+xPMRPE4JqmSbPG6O3oyOMJRJk5+XVW2GsE1E8mX8aUWt/4cVP78KEcVvSDmHv2kdiMQhLU9KRm53JlnjMY0oiX70F6QphBx1d/fEb2ycr8RsMkRZi55xwbK7sKXluAz4P3AD1+z8g6xSzSPd9A08WNiv2LxZ5DJtDN0DeaybiM7hjZmJ/4tuw0qYsz4XTOIKX0UHXD9jydbh0ysGyZZuQp2TWoSIdqTJbDPyPTiWZQCZH4Ed4I8i9lRCi4xW06wT8deqMsE08qdStIHK0hcPbr8GiqbBZR3DC+KajQ6kwnjl/QYipP9SJKFp37IB2FoY/VNvnTVdhrfYxfa0nXDqaCFsdYc171Gqo7/EBpVjY2MDCxATS14bjg5FcyC6k5RTycRVR5OzHTvbX3aoZ8g4yF1mmhikXfuI8FOwpK7VhG3vXYfkvu5F/SwKL1zry8fdRfIu5wCYwbSZsM4F0GemB9hfTseyLKfCbsRNt/EfBSecVKRKxLNYUn0x4Ey8KQWKYNwJcUVK/4hOMThCL1Wo4vPZaHQjio+V54zJhPHLiRL0TxjoRxWeffRafTPyA//uMECZmwNt90PGV9sJW7aM+tg7jetvCxs6BLbbw/U6IMICpmbYvUq1ngIPnrtax/nUOc485F3nkl/iVC2jRDBL2lB3x3W/44h0JMr+bhsE93OA7dxeq5RxcScSCby/j7S8XYcn3SxDxeR8UrQ3BnJTL7JiXkbCCiWTA2DKRJJ4qeEE8lMkL4uuvvgqLVi8LMQ0bThh7O9RPYayzgZY2rVth8MC3Ufq+j0DLl1rgXe93hK264Dw2f/MlEs+9hzXZ2sGXqvtI1Cg4z7nBgGVznYVZgUYS/s+IFZllgzrcMu8trUXY4nVMWJqErL/isex9M+z76TNsPsonKY9xEzRFCW4VazcLD2cgz94JzrzlaIQXO3rivQEvIy/9LxQe34L1p25hV3gw/D4IZMsKbGd7bV8UiDnJTDQZzJtijWrK8iSeRC4UKFDMTrKRUWO82OwFIfTJQCJ5DiZNtVfumfPncU9TUS0eD3UmihxDB3nCXFr+PcCPx3/AXL7qvIj3oKigvMr9VaCwkK2fZ66uVu/uIzNuHeJSmVu8YT4WLGcB0kC4v6EVP0ljbbl3Jm9F5jkVpD3fwVgpsxS/DsGPf7A8uVHm9O34dSc30nIKiau3s+1jkJdIIDGkUG1eQTdmQ17gywg0aWYKo+y/8NdN7TbuKpnYqmDUrhXMbMYj+ucI0TIe/dgu/YIj8KUHZzFcxkUZYN2mdt/7IuoPndq3Q0dLC9y5U8KPOitv/iPENGzu3buH/YePQHHtGj+C7mL/Op59Rp9f+eipU1Fs3LgxAsePFbaAvu690blTR2GrrngNQ6cOhwWzqYLdmfvstw7Ktj2FODFmcO6gxi+fjsaY4HXIbNcP89YEwkWribDtH4Q+TAQzf5iGn3OY69ziLXyxZg48Wb5zx+tc6FAsP8ONEqshiw5l24PR06k/xi0vhMunP2BCV21e5TC2gX1XJf76W2vpNXV8D5/Yn8HiyVMQOCMEgZ+EYPF5J3zu052PN4gyB4dlL8Ola9mgDPHkYWdtrRXGEk4Ysxq8MHKCmM4E8cr162j6/PPo5WAPCd85Xj94JL9o2bwlEafOnMUnE/xhbCyoTl2jZlYi0zJjExMYPqIaSqZrpibVL5dapQLn/Ro3YXk31obxFLFjcn2SEhOYGsjuTlYEPtr0MsLmeaO0y1z3ixYj5l4bV8+Svpj4BUKOe2BJkP5BGOLJQtf3ZsSMDVd7e5g2QHdanyBy/YoPQ23/ooVm83ssaH/md/bNEIzt/oAjKHdOIO7bTTD6IARetXMtEA0AsTA6v94dzdlDv6HA6cv+I0drVRA5SBQJ4innyImT/MAE1z31lpNjLf6qpW7h+kRrWxA5alsU67RPkSCI2qdb505o17oVP3LbhAlMQ8Gy1ctoYmxcq4JYF5ClSBBEg4YsRYIgiDqERJEgCEIEiSJBEIQIEkWCIAgRJIoEQRAiSBQJgiBEkCgSBEGIIFEkCIIQQaJIEAQhgkSRIAhChN6f+Vm0NTy/CkEQRH2B1y2ZHC+a1s4Xg/SKon1XfV9HJQiCqBtUKvGUvjWD061T52TobFU7H7Am95kgCEIEiSJBEIQIEkWCIAgRJIoEQRAiGrYocpNTqVTQTlN/P9wEU8oiYeNRwU1eVbFMqixER8Tg0AP0JSsPrkTQCD/4BK2sMr1sx0pE7qjWFPw83P7RmeUz5dtMVUmL6qsb5EiOWInks8JmBZSZMYiMyYJS2K4Kfv8a1EFM7dTnMaOnTNU9rwbrSlSbBiqKahxa6ge7Dn3g0b8PLJ0nIipXdDHIkxDk3B6W/b3gYe0En9BUyIQoMerMZfBq3R6LM4UAHjUU+9YiaLgTzFsvwyEhlEMRN5GFtS+3lKVl4hDqB6dBE+E/fixcu/shbI9wgxaxuHmsDDUVaFUq5g+Jg+mH3yIqZAisy33BnbVBuHe5MipyvkZoTqGwVTXc/slybbupzyYhlNXZsktXdOrSGXbDuTg+imGgbihEzryvkSPMY10RtTwVoSnyagsPv7+uDpfi4V+hvc3Ds7RxehDXB0W5iJrQC66jWJk/9IKd8wxE5+tKYag+1UQej4Du7eEfV769lblJWMyOa956IjZdEgIZh8Ir1IMt5dIK5TV38daWqfUUJCi0UVWdV3XuWviz691xCKvPKA+YT06CkJR4ABqkKCp3fI0Ptjvj5+MZyEjPwMmFVogetRRp/DWfi8jAL1A8bS8K0vciQ7YJPpc+QEhMhSdtUTrCJq2pIJaFSAjywgcbVejV110IK6OYPcVdF7J8L54tXaY6aOPU+2IQlD8YsSnRiP11EzLWOGPn5BVCmR4QdrwCWKCrrQVMpWblpk1V71mEgDUPZlHpQ3kBcA3bKdRrL75swSzUdem8mNVJ3aqDuhjK3t8iQ9TeBUH2QqRhZNsWIdziW6RtZWXekIydIUBQaBx/vh++PnJEh8xDmrClIzvCA14L0mHSezBchTAdjkFldZBtDYZrF1/4OJgJsSr20ByL2C5LcPJwsrZMF5fASypEG+Iae4iMikPXxUeRzdVnK7s+v+uP6iRtSGzZskVYq3sapChmpKyF05jBcBTe1TR18YV/l2VIPsCu6tx0xGb64sNhFtrIxhbwGTUOyZvTRQLIXYQzUBDyOT4UQrSYwWthMhLCP4G3g5BehEKRDtOmxsJWeZSF+VB0sYC5sA0LK9gp5FCK/MYbOUmIDJkInwmzEcmsJzHKI/GIYmXyCfoaUcxVUl3KRcLWFFZmOXasZu6T2P3mboSZCoSGjhECRBTLkRbzNe9yB82LR7bYALqWxSxOdvwRM7A4LhcFJUI4Q+rSHx5WupdfLeDYtz8Ul5g7xraqU7fb8nREc+VneYduzC3vLpcocTRxJUIm+ME/hLna4qoX5bP25tJNREhUKk6KE14tRJqpMfS3OMNAfRQXU9Gpg0XpnN/SV6xgzaytatWnhB03ajb8WRv6h6xFWgWzK3vFFKzvMRchPYQAAbvxyUhb8xX83a1hKoTdB7Mwp07Kw6g138JLd4mdTcTPa4YgJNC+8nSVnFfZjrWIGhaMgDdELy6L5yJ/AtAJ4qMSxgYpijmJQFd2wZchhaUtu1jlCihO5yB7kDUshRgOiaUVXPfkQyZYArK4LxCCrzB/0P3CV9UFpczLRNq+dKRl5kMpFpUeQ+C9cQZmxjBBYOGyPYnImOQLj9JHdiZ2HmfWWOAChI+3wtFp3gjZob2yFVunwHVMHFQOgxE0zA2d2J3BTbZv2opZiOyfpa0N7LrZwpK/w+XYFDob+HJu2U0lJj0Tsra+CPn+K3g0WgOPUSuRzYWrc7F4zATsbD0a4SuC4WXCHh6b+RR6YDdgXBK83B14i6PqugFph+SwHBGMyHlukKzxgt+KXCGGkZmKHDgjYOG3CLTOQdCg2Ui+xkUwyzxkJCKuOiP0+wUI6KZA8rZyfRlcgyODa+99Wcjj0whUUR8792AUL5yBsJRCZu2qcWg7E8mQwbBjcYbrw8rEzk1kUX+ErliO0L4KhPVbVGpFcl0uM7d6Yv4kh/vFuiox4rp1fOPQeelceIvOnVqWj2RPdn7Zwzovk6trLhQVrVa951UNWV4qvJjA41o+DnHtlMvV98mhohA+CmFsmH2K93WYSGDclN2YikLgrp5LQmLMpEUOBXdTsSd12AIpwj93q/ypXAkSi3HwaCpH9pF0Zt18gE69ZyBB12/Uyg3Tptvj5Lqv4eXYHk6rrTF/gnOppQI4wGdYf9hZmMDSYTRCplsjams6q4ocyevj4RG2BFM9neHqwpY3LCBtZQNXR87iMEFnRy7cBlKWmSxuEcKk37KbtZKfNLkPgZ+LFaRSK3hNYxZE5grsPMJuvANxCGsajLBJzrA0MYO1+zgEDhfSVEC2fjaCmi5B6BDBvauybkDfob5wtTKD1Ko/23ccDkWkasWYg4mQn6cNOy6zQP2DEdJlLWL3sXN1NgVRG5mF9AUTKynXLr4IHCX0R3AwKz+gtylkR3Kxd9tS+Nn2QlCitm+tqvpIurE29gUSIifAtXVneOUNRqiPoESG6sOVaY8vgvh8WZncfTGqC7PS2QMNRVmIDM3EqKXjeHGtKdnMqpNZqrFjUtdyfbbKa2wlcxEC3vsa6w+wusZ9jT49PkB0vjaeR+95VYEZuMj4bgr85sYgg12XsaED4DgmBnlCsoZMZQJY18LYMEXxvg4TNYqLmBUmZTdxI/GtKsD1TTGXUNqCWVnzVsBycTBcmYjWFLthsxAQOI4t7GZcl4CoHjEI36q1iBRbP4XfmSGI3hrNrKajSB7LLAz3KWWiWQFLa3tWLk7AC6HYA7RjolAlTNBDf7BAZFB5QaoUiQW6ejIRYdYQf+MZckUFZDtmI+BXG8SGDS61tmtaN0kHW3ixB5d+i8UCnZjuqe+yVc49ZrJvXFllujEh49t7HELCfkbyKmdEfxfHi63h+qiRvXQsIlt/hbQNm5BxJgOxrzLLd+gyZLNCGawPXyYmuNyIP7/MQMRxKSSNmbUZ8QWOjvkKfu21R6kpdv5cH2Y0EtJP4Oc30jGKPThKewscmJW9gT3suLoujEb0eAWCVonixYjOK4fTtCWIDeeuzWCEb1iNwIszECV4IQ2Zd955p9KlLmmQomjrCRw9IzxmeRSQ5bCLzkIK6Su2sNuaV24AhXNP0npbwTInHgFMxBYP6SyMAHojjMWHDbp/FLFqTGDOVCO7SCtsadvi4e0mWJ+NTWA3ZBI+7BGP2AP681UUiMsP3OZEogoObWQ3bu4yeFkLI5iDFrHQRfCqMNJZhgoynTfKPSzYTcS55ZXBuYYBc9QIjGAPjRZC4APUDUywMoTV+ylEadWZuyk1WKLymEqZpZfLOcMMg/XJxc4wU+b+W2k3JWZwncTKzKyxnTnVqE+XcQhn4sUJGLekHU5AQIskRITnImEyN7LMtb8Tu5aYJRroZHBEXD8SOL7pBiTm8teplD1EpJnMk9FG8pi35lziyl4X0p1XZiHbmiFDLj4PUpi/AhTw1yXxIDRIUXRyH42MNfGlAw/KfTGIOv4JPHqwG8XGGT4OMVi1UbjzSuSIXb8SHkOZO+TwSdkoJr9sQgjbJWTrWUTpXMXK4N+JFF1oqiykpQB+XbgbTwITMzPsTE8ve7Kr8nDitBm6WujyVeHGNSE9K1MyuzE93O3ZJWwDx0lmiF4XD5nw5K8M8Qgmv2wNZqHBSLi4HN6ttPvgqoLvJ+NQ7kvENnwCR1t2q9g5wyMxDsk6l0xdCNlFYZ3BCaL3JDkCY0QDADzVqRu7CRU6y0SFtO2JwCT7MhdTqUSBrunkKYjd6AaP7ixtF3v4SWOwLUVIW8Ju9ou6fNTMGhSLggqH9rAG97WCNdsyXB8TmDikIjld9OCR5+Eo+sOydRX1sbXH1OMx2HSwgqXVajCixG1/MQORgwCviIxqjIhzdRFdOyWFSNgcA6mvPTpx21w7YA1WxenKK0daYhIce9iUOUWVnNdO9r7AmjXYVJo0Hdu22sO1SxXXM1EpDVIUTfvOws+emQjo4gQnZyd0mp4Pv/WT4Mq7YTYIiJgL4whvmDv3gpOlN2Jb/Yww33J3es1RZyJ8iCt7gveC1yBmLXSZgqNDExDqybm9JvBgLszAIzPQydmbuVzecOoyA3kjVyNA10XGXHvZhg+YoHvwZYowWS6USQLXyasRpF7EwrUWoF3Qg79n5oFMBPXuBVd3rl1y4bNKaJf2vgj7UYrI3ix/1i6uH67AUbXuxmE36YpFOHQ2Bv49BCuUXzgLtBp1A7N6Mj9l58IDrt27IujIEPw8uczFl0rZg+k9rkys3QathOmPggsqcca0VWOQPa0rf65c+32BbRd1qdTIYOfQkZXDaRA7ZuuuCDg+BMlf9tdaeAbrY4VR4d+y43jDzp25wMM9YDcoHpZrZrGHRxX14cq0fgiOTu3Kjsu5zyzeeQaSH/SE8KiQsdALdlxd2Pm3sxyAMOUkROvaiD/mJKgX9GLl9WZt6I3v2PUR6S9YuozKzqvEhctHjbAeTnAdxNVzKav3Evh3ERISNaZhfzqMs97YA9jYxKT0BhTDveFf3MgEpg/Qf1gp3C8OmKtr3IQdU99oY1XxXJlLKimTobgawtUd+tqlhFktasmDHaOqunF532IPLRN9Z0Mok960LB2L0puOz5Od5MrOYxX14a8B9lfvNVJFfbRpWd6V1KfGCNcrJKwulWRZ1TVr8Lyydqr03NRz6tOnw+h7igRBPHZIFAmCIEToRPHw4cP835pgZ2dHH5klCIKoK0gUCYIgRJAoEgRBiCBRJAiCEEGiSBBEjbn5z6P+evOjo1ZHn+/cuYPJwZ/jylXuywtV07hxYwRNGo83HF4XQgiCqO9MmxkK+fkLmPrxOLj0fEMIfTie2NHnf4pu8YLY7IUX8NqrnQwulm3boKSkBHK56LdmBEHUawoUhbwgcsjk2r9PGrVqKV6/fgPjJ02Ho303zJj2iRCqn4zMw1gQ/gN8hw3GsCEDhdAaYvAXLdyvJAz8EkIHN3/KOiVcA93KfYORIAj9JO1IxeUCBUa+OxSS554TQh+Op+49xbT0A/ht0xYUF3O/cdLyzDPPaP+yfzXH8Bwt2jkrPOA3fiL8BznBKSgGeZV1gfDzp+SKfmtc+RwtBEEA/fu6Yex7vrUmiPWNRyKKe5kobti0FcXqsg89aTRaA1XD/tUUw3O0yBEbthSW85ORwH36KeV3hGIGQreJvphSKYbnaCEIgvMo76GwsJKZyp4AalcUBetPx6496Zjz9UKczD/Nby9cHIn/fr+cX38YS9HgHC1M2BQp1uhkqXOozWBpbYWjpZ+2UiMvcRk/1wU3/0byafFnPA3P0UIQTzucIE6Z/jkCg2Zid9p+IfTJonZFUbD+dBQUXsGxv0/iH2H4/mTeKX7heBhL0dAcLdynw/qEFCNs+iIkX2IiWZSFnalWCBlkw+/JfXXZO0KBXl8sQXigLRQ7ksp/ELUBfmGEIB4V165d5wdbOC5ffqjvqdVb6tR99vV5BxvWrYR9d+3nRlf+sAg/Ll3Irz8U950L0RwtbN1uVDD8kITI8R4wt/bGiWGzhE/Ia+dD8Zk+C942ZjC1sIffBF84cVEEQVSJmdlL+GSiPz84+i67v59EHkmfYq1jaI4Wfpa3lTAPS+bnwJVlRqPz797wWprL9tLOh/Ji01r6Ph5BPIW86dqTf2tE1wX2pPFIRDEkeDJvMb5oWtP58/RjaI4W5KQirAU3h7E2RtLKGVMnj8GhMG52OSaGbJfqzIdCEIR+iopu4ZzsvLD15FEnAy03b/6D3L9PGFzkF7QvbT/IQIvBOVqamsBxRyrSRJopy2eKOcgClrCCo68ZoreXzZKmlCv0z5hGEMR9/PvvHQTNmI3gz75Ecipzu55AavXl7aJbtzB2/BRhq3qMGfUuBnr2FbaqCzfd5EQEzGNi156JHhwQtnIJ/G04t1iNvJjZ+CAsBbC2hvnVPJx8aQjCv5sFD25spigLi8dOQNg+Y1h2kcDR3RmqCCmCLn4CRz5vgcxlMB8EJFQMJ4inmKtXr2HilBn8OjdmMGwou0lqgfr08natf3l7T9p+XBZGp6rCqHFjeLj1RrNmLwghNaQ6v2hhMfrm2Kh0rguCIAzy58FM/s2SwV5vCyEPzxMtigRBEDWlNkSxnWXtvFtMokgQxGOnNkTRsXs3IeThaJiv5BAEQdQRJIoEQRAiSBQJgiBEkCgSBEGIIFEkiCeeO7hz85awTlQFiSJBVORmNrau/QmrhOWXPcdRVNOfhhYrcac0jQxJ3wRjVdYd7aY47mICvvy/n5BV9qnROiAbawPWIEfYIgxDokgQFSmW4c8TpnAfOhwjPN1gfiwSU9dnM3ur+uT8Goy1fwsbsMR/Ro5B/y5G/Fa5OPMeGP1hP3Q2FraJx06jkM8+CxXW+W8cXlcq0crcXAghiKeQW3lIyTRCr7ft0LxpC3SwUCNt3Vm84mGO/N9jEBsbjU0ZMjR6uQs6NGdCdz4Vv5xsBPPL2/Fr1r9ocX071iTIcP6GAheuGaFzJ2PI0rfjsqkdjP9eh5/Eca3/wYGUC2jerQO4byYXnWF5/LwG6/efwl1TS1iZNdFarnsVeOHWIcStW8fiLuGlznZo9TxLcFeJM2nrsPynOKRduoO2Vh3BFQm3TiHltxWI3JaFm02NcGW/Eq94O93/gal6glrNfzYfly9f5v/WBHOmV5xutX75ZSHk4SBLkSCqoOgsEzHzlniRrbd1HI6PJn2BOe80wZYFG3CS2+HGcWxa9ROS/rHE6x1ehtSuBxxaAB16MkvTrQua4hbOZxzAiRtGaF4xjrNKtx/HdS6f/DWYGn4cr4z4P8x53w4Xls/F2nwWzu0Tm4ADsIPPuMkY0TILi7Zlcylw8rfZ+EnhioDZX2B0iwP4ZjMXrkTaD//FzqZDEDxpDHow9/0MvzdRHUgUCUIf57i+vmB8HBSIcb/eQWCAF6TGrdDGXOsCo7UlOt+8hX+1W0CPIRjduwfsX2uFJk1M0YTt9kIzUzTlVkQYGYg7mZGF5p7D4dqaxZn1wCDPJkhK14ofzO3gamuJps1awt6+I+7c45z54/hzT0v85z+tYFR8Cy926YLmeTIoirOReYQJ6KAukLLjtLHvweSUqC4kigShj3ZemPPfRfghPALR4f8HV65HqSABs4L/i9j9B7B3WxpOaPesNf5V34JRI2GDo5GRIH6VcQt3bt7BdflxnMhjy3VLjHjXHs1vKvmP0z8nzouoNiSKBFFNFEcOoMhjDEb364f+Pm7oIITXFh2sOuJM3iloZzS6xdYvoVPrVvyWfjqiczcliprYMeuRWancwixVIzMW3kyGk7rvwN69g3+EVaJqSBQJoppIu/VA083zMeubufh4yfb7pwoqpRVesTXFzh+Y+/1/0dp+x1Iqj2vakwnuzWjmsnNuezAibw7BlD6GRNEUrqP7QbGcy0tYfuPc7S7w+bgjdoYGsrAQTI1IhaK8p04YgL6SQxA14e4tFN0xQlPjOlSZYmb9oUkNjqF9OftfowppmIV4554RjBqAINJXcgiiodKoJmL1gBib1vAYTPi4gZuKaRo1DEGsb5AoEgRBiCBRJAiCEEGiSBAEIYJEkSAIQgSNPhME8djRjT4/CJxu1ebos15RtGjbVgghCIKoeySNGwtrNeeRiCJZigRBPErqk6VIfYoEQRAiSBQJgiBEkCgSBEGIaNiiqFZBqVJB+83eiqj5OKX+SIYQr/0kSQWqSqtFmRmDyB1yYUug6CHKxKet4qC1hSoL0RExOGSgK0d5cCWCRvjBJ2ilwf0IEXy7pkImbFYPQ9diNXigYxKV0UBFUY1DS/1g16EPPPr3gaXzRETllomJOnct/J07w2PURHj1cILP0qxyIiXb8TV8umvj/Qc5wW5prhDD0mYu4+Nc+3vBtUMv+EflViJwbF95KkJzCoUtOZJD/eA0iOU5fixcu/shbE+ZkhgukxwJQb1gbu3F6tMZdsO/RrJOay/Fw791e5iXW5bhEBfHylo+XFgmxAtfcMnC4sriilh557EbqbIbUZWK+UPiYPrht4gKGQJriRBeQw6FVzg+W/zjdG2mH0XcxPvSmIdnVR4niue5louE8IlwYuFVHatq9LRh64nYdEmIrgjfrrnaNjZ07gQMXYvVRnxM4uHhRp91y/UbNzSZR45o6js3tn+hsR24VJOhFLbTFmr6dFuo2VvMNor3ab7pNkDzTZoQ+U+mJnygo2bmdmE7Z4VmQLfJmliZdpPnjvD3aopmZrehmvADwr5KlpeHI8uLy/h+CjZP0Ei/y+TXi1kZbEf9qjnHbzEOL612mY7+OFRjOylOc04ox7lfWb7ivEqRabZN7aPx/j5To79ExZq93zhq/H4VKseOO6fVPG0ZKnIxTvNBqwma2IvCdkWqin8Aig8t1Xi7farZJm77qpAlaqa6jdSEH9JfY65N1o8SnaPDKzQubmM1M1f9qvnGt53mg80KbXitUKzJ+H6kxmVqop5zI8C3G7s2hc0y9Jw7Q9diTaj0mA0HpVL5wMu1a9c0GX8dFnJ6eBqkpZiRshZOYwbDkZvph2Hq4gv/LsuQfIDZXjnsya7wRF8XIbKpPbxHWCMqJRNKZpulbVkB4+nB8LbQRvMIr0gpM1MR5TAG3m8IaU2cMWqsNRanZmqtuqJ8ZoHMgM+IiQiJSsVJJb8Xj7IwH4ouFiid8svCCnYKOZTcPgbLlIu0DVnwe28wLIVyWA4ZjYCUeKSd1W5rYdZx+BREWC5A9CR76DXczsYhcqk7/PoKlbtWyFwqUxgbsPJu5CQhMmQifCbMRmSK1jxVX2KW1tYUllaOHatXIpJ3s1XIjluLMG5f5lIHzWNh1/jdWYJCpMWsRGgQc7W5tolIQl5FC1Qej6mT8jBqzbfwErc9Z+XELELIBJZuoShPjiLWboEr0G7hz5jqoL8S6n0xCCsYj4EuQrzNOKSl/Iwwf3d0NtUGiVEeT8JivpwzsDgxn7V/GYp9a1k5WBxri6h991uYsrhPEZDni+jw/rAUwrjzkpe4jO9m8A9Zi+TT4hx16Dt3hq9FjsrLWsUxDbUpUSUNUhRzEoGuHcRXkhSWtkC2nDkQTAHs2OVTLPJ5zS1smEBw/XwKyI4UwtFaylxfJkb70nEov8zFlR1nGdtaiC54IW2OHAUoRELISERcdUbo9wsQ0E2B5G2Zwl6sBD2GwHvjDMyMyYWyhOW1JxEZk3zhwU2fZqhMTDiP5vZHZ3F1JBbo1DsdJ2W6BFx3wQeYeXEMIgMrEURG9u9rcXTSYHi0EAJ4WP6snlxdsy+JCsCTiZ3HAdfABQgfb4Wj07wRskPbHqatLJicmrJ2tYFdN1tYSpSsBhYYyPaN+v4reDSKgdfCVO2Nqpaj2MQBo0KWI2rheFgf/wIB60VuoDwJQb5x6Lx0bnkBUOdi8YheCM+2QJ/Ro+HlLIVEV0ROEMd+gXNjliCgEkFkfg6SNy5D14/6l81BYuAdYPWRZfCbng7Lj5awOoyGNHEkAmO0DwLF1inwWqGC1+esDp+7oWD+AITtK2sv2Vb2MNxsjchQ9vASwjgUWz+Fd4QCvb5YgvBAWyh2JCFDiNNS2bkzfC0aLquBYxpqU6JaNMw+xfs6TyQwbgqkKdjT3cYZPg4rETR5JRI4MUhci9AVScJ+hVDsATbN/AD+EYnIPpKKiNFd4TUvnb+51SX3WweSpszc2MPSnU1B1MYhCPliMOykJrB08EXgKAdhL0YrN0ybbo+T676Gl2N7OK22xvwJztqbwFCZ7qrZbVMRY+6TepAx0eRRpGPbPiZUZ5fCq7J+zmupiF4hRchI4ZgcjUzgFGTFbrBcZKfGIMDTFT4R4rQO8BnGBMWCq89ohExn1utW1hatbODqaM0k0QSdHZ3h6mIDKRNq1yFu/L6mUit49XMXHjQME3t4eNrDmrWLqYU9Bro7ILuo7CjZO9ZCZqnGjkldy/WXqg/EIax4FubPYw8PF+44LH/hQ9OK9ETsbWQKWYT3fX3GpeTGICJ1HAIGipW2MtTI2LoI5h9OgreNGauDDav7ECTv4/rimGW1Ph2jJn8CV65+Fm4YxSz56CxuKj2OXBYvh6U6BQG2TvAJ1Q1qcOni4TN9ljZPVne/Cb5w4uMEKj13hq7Fqspa+TENtSlRPRqmKN43ea0axcxdc5WasXUbBGzOQDi7Z2VMDE6qbeE3zJmpW9kz2nt+NNaHBSMgcBaiti1Hp4ivEc0MG0ljLn151EVMLnubQXqVuYgGXFHu6e13Zgiit0Yj7dBRJI9VIMx9ChL4DnkDZWok0WP5FXMfX4ZlC8Hdlroh9NdoxG5IRvaBYODzT5lIaKN0yJjwRLn5wqu9EMDB0gVMZ6IRyJbPlyBt/Xgomdu7t8wgKYeltT2rsB7x4Slz2Xj3eUWZlcxZbIeiZsOfj5uIOZt1o0Ra7PxZ2Vn5E9JP4Oc3mPhEaC1M5TW23yvSsi4HEdK+s/g0sSkZyJgGhExdC2FeOwGt+6kePwSu7IFYNSowoxzZq6bw5ecWv4XswdSUa3+tQG2crw3n67cqD+alJ8YG/lxZft2EjLwf4bjvA0TyFrU23Yssj0qp4tzpvxarLmtlxzTUpkT1aJCiaOsJHD0jvvGYK5LDbj4LQS2ZuLn6asXAf4g91GdSYMfcYilz/6yHAXkXRRZhCynaMUtAXcxEoQvLmLnK4lcbCphrw7nU5swtkzKx0g8TzG3x8HZzY7LJaGwCuyGT8GGPeMQeEI5VWZmkFuhqk4QT4uowd/TkHmd0stRz4XOWmGcujp4W1UGdhU0/5WDqMOH4lcHqasnaSlXJiLOiQFyICuSuRcB3xczS1Arc/FHM/RdQJjLr+IANQtdwccsR0q8yy00CxzfdgMTcsjYu4R4BhrHs4Qmv3BzIxB7CpSRELbWF/4CyclQHr+k/a8WWW7buRUGYrs2sEbhQCOcWJsbJ4/Xk3dQeffsB245zbcXOD7vkbt/VRlVJuXNn+Frk0F/WahyzGm1KVE6DFEUn99HIWBNf+u6ccl8Moo5/Ao8enIio2dNSG86hPLgMc9Y4I2gQd4GbwY65EwmrYnBIEAb1wRRsk46GrTVzcRzc4J+5BpsOChmr0rF+dR6mujlA0oW5KdIYbEsR4kpUkF3UmVwSmJiZYWe61g3nUeXhxGkzdLXgrE9DZWKu6nB7RK+Lh4xdzByyuLWIdB8MV87q495dFBlvyiNJiE10Qy+7MqtWmRKDMGPRYIOA+loh1EKeHLJ9KciwcYB1qTulwo1rQuYlzC1jwu7hbn+/Ic5QXpQj+yULZr1qt4tZuXTI5OyJZMEeHPzhWV3Vujiu3qLClxQiYXMMpL726MQ2pd3d4JEoam8Btc4t51EhOzEOCe7OsBMVLHvzCmSMGV3eMjaIGRzd3RC7Mam0nXn4dRs4TsrD+s1ZZeePg4vj3oUVP0QUrP3Xm8HP3optWMHR1wzR24W+VYZSrijLw+C5M3QtGiqr4WNW1qZEDWiIr+Twr0b8MFbj2MpR49jTUSPtOUGzKkf3okOeZtUwR42t20jNgJ7tKsRxyDQ75ozU2LZy1QwY6Mrix2oiRK97FB9aofFj6Wx7uvL7fLAqp/QVCv6Vkm5cnq4aF7fJmjmzxpa+kqO5uk8TPorLb6jG23coK5s4bdVl2hbchz+eI3fsYfM0O3SvaRxeo03TrY/GhU87VjNnu/gdDu6VlHaaqb8Lr/uIOLmOayOWn9tQjQsrN5dv6esw3Gsc3VgdWFs4uvXh29IlWPSqScVXcrjXiFgdHAeO1HgPZGX4fp7Ge3ycpoCL416bYefBZRir38AJmojvPhXaRaHZMZOrVzv+GLbcMQLWaI7+wyXScm47y4drU7aPlNU/4rBGc3QV135cublysbSjRO3B8c8+zZxuAzQROcK2XhSa2PEVX8kRzj1rS29fVg83dh5/FDL5J0ezarzu/HHnyVUzdTtLW5CimenGrjFWNhfuL0s7UXRN6NqFi+fqOHHuFxo/3esx1Th3lV+Lhspq4JgMfW1a39H3qk11l9p+JadhfyWHe4qzJ7GxiQnnVJRDrVIxF0ICU5OKMQIG0rJI7S9LJCYwvS+Si2NWZWX5ctYBc22Mm7B8K4yEVlkmPq3++CrTVopQl6raooTVtRp9c1w5UGmbVdIuQlvrb08t9+VbwvK7xRI1ql65aoSh8lRy/rTtX9n1oqf8Iqo8d4auRQNlNXRMjqri6xP1/nuK9OkwgiAeJfTpMIIgiHoKiSJBEIQIEkWCIAgRJIoEQRAiSBQJgiBEkCgSBFFjbv5Tyc+ingBq9ZWcO3fuYHLw57hytXrfKmrcuDGCJo3HGw6vCyEEQdR3ps0Mhfz8BUz9eBxcer4hhD4cT+wrOf8U3eIFsdkLL+C1VzsZXCzbtkFJSQnk8otCaoIg6jsFikJeEDlkcu3fJ41atRSvX7+B8ZOmw9G+G2ZM+0QI1U9G5mEsCP8BvsMGY9iQgUJoLcPNXbFOCddAt7Jv4Ol+sdBA3vQniPpG0o5UXC5QYOS7QyF57jkh9OF46l7eTks/gN82bUGx6CurzzzzjPYv+1dniOeuuJaFyAncPChd0alL18q/0UcQhEH693XD2Pd8a00Q6xuPRBT3MlHcsGkrinXfRGJoNFoDVcP+PRIUSpiO3wTZxbMouHgCCUPlCAmLK/eZMIIgqubu3XsoLLwqbD151K4oCtafjl170jHn64U4mX+a3164OBL//X45v/6wliI3k170wtnwnzAbYTG6Tz4ZmLuiixv8HMwEl1n4rl9OYdlnngiCqBJOEKdM/xyBQTOxO22/EPpkUbuiKFh/OgoKr+DY3yfxjzB8fzLvFL9wPIylyM1f4d1jKbIt3eA/uj96mUmYHGq/fm14vgwdaqRtj4HdGGf+u34EQVSPa9eu84MtHJcvP5mTqtap++zr8w42rFsJ++7aaYVW/rAIPy5dyK8/DNz8FerP5yLM1w2u3DwU7jaQVme+DAH1nkUI2O2L+eMrnwSKIIj7MTN7CZ9M9OcHR99l9/eTyCPpU6xtuPkrLFtX/D50NebLYKhzV8J/pgIhkZPgWNvf6SOIp4A3XXvyb43ousCeNB6JKIYET+YtxhdNDc4gUjNKKs5CwcSwqrkruLmHx6XCaekC+FmRjUgQD0JR0S2ck50Xtp486mSg5ebNf5D79wmDi/yC9qXtBxlo4eavSFhTNkeLlirmy2CCGOAbg85LK59YnSAIw/z77x0EzZiN4M++RHIqc82eQGr15e2iW7cwdvwUYat6jBn1LgZ69hW2qoscyaEzELQiXfsOYvtZSE4fBzt+AvUJCNtnDMsuEiaezlBFSBF08RMgvD289HRnhmw9y0RS2CAIwiBXr17DxCkz+HVuzGDY0EH8+sPyRE9HsCdtPy4Lo1NVYdS4MTzceqNZsxeEkBrCz+Nx/7wgDWluCoJoaPx5MJN/s2Sw19tCyMNDc7QQBEGIoDlaCIIg6ikkigRBECJIFAmCIERQnyJBEI+d2uhTbGdpIYQ8HCSKBEE8dmighSAIop5CokgQTzx3cOfmLWGdqAoSRYKoyM1sbF37E1YJyy97jqPI0G/q9VGsxJ3SNDIkfROMVVl3tJviuIsJ+PL/fkJWxZ/y1yrZWBuwBjnCFmEYEkWCqEixDH+eMIX70OEY4ekG82ORmLo+m9lb1Sfn12Cs/VvYgCX+M3IM+ncx4rfKxZn3wOgP+6GzsbBNPHYahXz2Waiwzn/49bpSiVbm5kIIQTyF3MpDSqYRer1th+ZNW6CDhRpp687iFQ9z5P8eg9jYaGzKkKHRy13QoTkTuvOp+OVkI5hf3o5fs/5Fi+vbsSZBhvM3FLhwzQidOxlDlr4dl03tYPz3Ovwkjmv9Dw6kXEDzbh1gwg5ddIbl8fMarN9/CndNLWFl1kRrue5V4IVbhxC3bh2Lu4SXOtuh1fMswV0lzqStw/Kf4pB26Q7aWnUEVyTcOoWU31YgclsWbjY1wpX9Srzi7cR9SKpeolY/+HxJOt1q/fLLQsjDQZYiQVRB0VkmYuYt8SJbb+s4HB9N+gJz3mmCLQs24CS3w43j2LTqJyT9Y4nXO7wMqV0POLQAOvRklqZbFzTFLZzPOIATN4zQvGIcZ5VuP47rXD75azA1/DheGfF/mPO+HS4sn4u1+Syc2yc2AQdgB59xkzGiZRYWbcvmUuDkb7Pxk8IVAbO/wOgWB/DNZi5cibQf/oudTYcgeNIY9GDu+xl+b6I6kCgShD7OcX19wfg4KBDjfr2DwAAvSI1boY251gVGa0t0vnkL/2q3gB5DMLp3D9i/1gpNmpiiCdvthWamaMqtiDAyEHcyIwvNPYfDtTWLM+uBQZ5NkJSuFT+Y28HV1hJNm7WEvX1H3LnHOfPH8eeelvjPf1rBqPgWXuzSBc3zZFAUZyPzCBPQQV0gZcdpY9+DySlRXUgUCUIf7bww57+L8EN4BKLD/w+uXI9SQQJmBf8XsfsPYO+2NJzQ7llr/Ku+BaNGwgZHIyNB/CrjFu7cvIPr8uM4kceW65YY8a49mt9U8p/Ue06cF1FtSBQJopoojhxAkccYjO7XD/193NBBCK8tOlh1xJm8U9BO83aLrV9Cp9at+C39dETnbkoUNbFj1iOzUrmFWapGZiy8mQwndR/HvnsH/wirRNWQKBJENZF264Gmm+dj1jdz8fGS7doPHOulFV6xNcXOH5j7/X/R2n7HUiqPa9qTCe7NaOayc257MCJvDsGUPoZE0RSuo/tBsZzLS1h+49ztLvD5uCN2hgaysBBMjUiForynThiAfuZHEDXh7i0U3TFCU+M6VJliZv2hSQ2OoX05+1+jCmmYhXjnnhGMGoAg0s/8CKKh0qgmYvWAGJvW8BhM+LiBm4ppGjUMQaxvkCgSBEGIIFEkCIIQQaJIEAQhgkSRIAhChN7RZ4u2bYUQgiCIukfSuLGwVnNqe/SZXskhCOKxQ6/kEARB1FNIFAmCIESQKBIEQYggUSQIghDxRIuiWqWCUvvJkfvg41QP/rXf+o+a1Y/VsY6rKNuxEpE75MJWLaHKQnREDA49eN/7fSgzYxAZkwWlsF3rlGjbW10ibJeiwqGIGfAZ4YegFXV4/FKE817JdU9UTcMVRXUh0qLYxda9PczDs4RAAXkSgpzbw7K/FzysneATmgqZEKU+m4TQ4U6w7NIVnbp0ht3wr5Gs956WY9NkJ5hPiBe+hpKFxa3ZscotE7HpEh+ppZIyKeImVkgnLBXLzVBnLoMXi1ucKQQ8AOrctfB37gyPURPh1YPVf2kWu1Wqohr104Mi52uE5hQKWxW4FA//+/JchkNCdKUUyZE8j52zatzY1W0vtTwVoSnySttB3znSl6e+48l2fA0fR1d4fTgWrpa9ELS17IJS7lgEr80mCFi4HCGDrFB+KpaK11hV5dBzjkRptefdA37jJ8J/kBOcgmKQR+JYYxqmKCqY6HlOQKzSGR59hbBSchEZ+AWKp+1FQfpeZMg2wefSBwiJ0V6oyguAa9hOFFw8y5a9+LLFSgStS7/vZpGtn405e4QNHntM5dNwywkkhDjD2ncIHHVfdjJQJumQ5UI63bIX4e5mmPqGjbCHQFE6wiatKRXwB0Kdju9GxcB64VFkbI1G2r4f0Wv7BITuqMrsqqJ+D0KrwYgS1TnK1wquLN9a+wp0bbSXQHGRCq4L2TVTWt6zmOogROrQd7yzMQgZI4fP1gykbdiEjAPBKP5iCiJztdHqIiZZr9iiq4UJpK1MINEG89x/jVVRDnUxbmAcYs+UxRX8OFiYd0WO2LClsJyfjIRfoxGb8jtCMQOh22rZin8KaJiiKO2P8JRNCA8aDKfWQpiO3HTEZvriw2EW2u3GFvAZNQ7Jm9P5i1nq0h8eVtwUQRwWcOzbH4pLzN0QQnhyVyLgVwfMn17xrtAii/sUAXm+iA7vD0shzGCZKqDeF4OwgvEY6CK+RVTMOpqBgpDP8aEQwsNZnzErERrkx1ywiQiJSCr39FceiUcUS+cT9DWimBurzmHWhMITfV2EOja1h/cIa0SlZPJ1VF9KZ67p1whi7pzPhNmITMy//4Ggr34MztqKXjgb/ixdmNgVLZazMmrzDJoXj+z79FeNQ+FTEGG5ANGT7EuFQZnLys7lx5WFlT/6YPmEN3KSEBkyUVtOZuWVp5L2YlRazhIljiauRMgEP/iHrCznISgU6TBtamhKPf3HUxxORfIgT3gIlxss+mPUsCzE7vsLiiNJTJzYQU6nYFXEyvLueyXXmMFyXCtk17ApjMWXTSmFUKRYo5OlLtIMltZWOKqoxT6Ip4Qnrk9RcToH2YOsy93MEktmoezJh+w+34ndzHFJ8HJ3KJvlrIiJysxEDJz/CZyaCmEiZFuZAG22RmTo4HLHqD7s5tq4DF0/6l/OYpLFfYEQfIX5g3R3l4BajmITB4wKWc4EZDysj3+BgPVaM0SxdQpcx8RB5TAYQcPc0MmU6RO7Y+zYrVcsqqu5BbNIr6l48Su+qIZpD1+ErFiO8PHspgmZgijBquGorH7qI8vg3WMpsi3d4D+6P3qZScrEND0TsrYsz++/gkejNcxtXwlhZhEGE8SlH2DmxTHMgi8TRA7lDcBywDiEr1iC+f0kWD9kEZJL7+FM7DzOrPrABdpyTvNGiMjaray9DJYzMxU5cGau7LcItM5B0KDZSL4mxDGUeZnMsk5HWmY+lBX6Bis7nqQpu3KUxSibtlkCyw7OyC7iZm8xgaUFOykvWaBrNxvYdbHQus9VXGOGysFds0e5OLZkXxJf0DboE1KMsOmsDblwdoydqVbMZa/gjRBV8uQNtNwVXygCEmP2fJVDIboBODj3JajpEoQOMRNC2A28Yh4yRixBgN5rKRfJ6+WwVKcgwLZ8X2W1yY1BROo4BAwU3VzyeIQtkCL8czdWzgqY2MPD0x7WUhOYWthjIBPw7CKujnJWlnh4hC3BVE9nuLqw5Q0LmNo4w8dhJYImr0QCd/MkrkXoiiRtXgxTBzd4OVhBasJuWAdmUfbI5bwygcrqp2au+CKoP5+LMF837bHcbcoeJO5D4OfC8pRawWtaMAIyV2DnESGOWT7b9rHjnl0Krw694M8UWHeGLF0Gw8OGldnEDNae7ugLBVSlVrADfIaxBwdzOy0dRiNkOrN2t6Zr+88qba8qytmDldPTBpYmzEPwD0ZIl7XMotP2h0osxsGjqRzZR9KREP4BOvWegQRdf6qB88O1p//xRQgKjUEya+/kuGUIW5XHYowg7eYMJ2tmsZtaw4krSzczJpmGrzGD5WhkAqcgKyb8uchOjUGApyt8InTtyR6Go4LhB2Zdj/eAubU3TgybBb/2fCRRA548UWykx7dgd72SucrSFsI2Q7ZjNnNfbBAbVmYRqQ8uxczjYxA2qoK1VooN/Ln+ml83ISPvRzju+wCRVfbViVEjbcsKqMcPgWuphSDHpnkrYLk4WBQmRoVDUYKLydznOZt1Ph9zl/YA7ZhYlscGAZszEO7O6shunpNqW/gNc2b3jNAu17IQxbmkvPs8D7GntcFaKqufCgp2WMvWpfJSORJmFXkyodFZOFI3hHJ5bkhG9oFg4PNPSy1TdX4SFvPdApz7vAIZ2mC9WFrbswTah0Hl7VWDcrLroRPzXNV3tVt2TEACAtnDKjAYYesSENUjBuFbuYJWcX5auCFszy/wt1Qhj7W3woS5z0OlkDbW6+NWeY1VXg4Ga8uA6VwcWz5fgrT146GcF4O93ClS52LxmJUwD0tG7Na9kGVGo/Pv3vBaWvYQIqrHEyeK0ldsYbc1r5wFp5blI623FXTdLdwIYsAcNQIj2IVeKpSFSFi1DNnMJXUSRvbsApmFxbbt9I2YNrVH337AtuOijqmquJSEqKW28B8gMhEy4xHALvrFQzoLI4reCGPBYYPawz+uEMrEr+F1wAahazixWo6QfuVvptvCTV2OxmZw9dXePP5D7KE+kwI7W/ZQYKKRMNcbad1nIZoTqh+C4VVZH4C++pWUOYmVo2I3pLBaEc7S9czF0dOcdZaLqICluD10OasXK8v80bDV7qUXRYFQDoPtdVW7T7XKWQhdlvdjAnPWLrxFXsX50e7OLGR/bXv7uZtCkZOLgcxVvp8aXmPicuijhZQ90AXrOicVYS24/nJtlKSVM6ZOHoNDYamirgyiOjx5liLvPsZg1Ubhii+RI3b9SngMdeYtQk4QvSfJERjzLbzKXbdm8P5RNKrHluyI/sCgJci++Akc1RXe/VIksXzN4GcvXIXVIHszs4bGjIaX2KVx+KTcMQsubkIICw7ZehZRzK2XyXOYmFjAnBd0NZSsHFps4DjJDNHr4iEr1+/E9hH3kx1chjlrnBHE9y3JIWPZWbaSavv27qpQrKuTwfqZwdHdDQlr4vW/O3hVUdr3pdyXiG1g7cUpXFH59ySV3MBDoht62Zkx7VRAlmuKdpaCpcv2LZ+1CjeuCYnZOUzeFg8Pd3tIDbZXF8PlVCpRoCuPPAWxG93g0Z2Vhau7+J1VVRbSUgC/LqzuVZwfPq0oqWzjPMy5yNzY3hUteI5qXGOVlYOhvlZY7j1I2b4UZNg4wJp7Q6CpCRx3pCJNJPSyfHayB1k8YN/308uTJ4qc+xgxF8YR3jB37gUnS2/EtvoZYb6cArIn9YpFOHQ2Bv49tE9q7VL1+3hQZmL+ICe2by+4urO//RbhxuTVmFZuBNkARemIXQEEvqen39AAdp6T4Pf7FPQZ7gevQVOQptQpuQSu7PhB6kWsjoLVEZTE7Ab2EJjgBDt3tr9ze3SamgOf9Qvgxb9aYwOvyb5ImOzFXFbmWk1Oh0qXXRX1s/T9Cusd0vFBF6HNnMsGUzyQiaDe2nSdpufCZ9UkuHLJ8uPg58b27e4BV64sAemwXvOVtp/LhD28mLqE+XnDZ7g3Rn2fD0lvPjstUvZA2PABnNw9+HMYYbJcOIeGMVROqZS1zXtcOXvBfNBKmP4olEWdifAhrnzdvQaxuC5TcHRoAkI99QlbBbi0rI5Og/zg2r09vGKkCI/4BHbVvCzKUUU5ZImfwpWdazt379JjzY8apx2w6+KLxeGmiGDn0JVdKz7sXHhttMD6z3Wv7BDV5Yn+dBj3q5XiRiYw1dtX92DwebK/xibl3zmrW7hfKQCmJpUckbMwSsrXU1tOif40evbXUWX9uF9u3NJfFi4t9KQzWBbOmmzMyqL3YAwDZTVIVeVswspZ8RN+XFnusrrri6sCg3WsKQbLwV0LnDVZ2bGqiq+f1KdPh9H3FAmCeOzQ9xQJgiDqKSSKBEEQIkgUCYIgRJAoEgRBiCBRJAiCEEGiSBBEjbn5j/hN/yeLWn0l586dO5gc/DmuXBX9pMIAjRs3RtCk8XjD4XUhhCCI+s60maGQn7+AqR+Pg0vPN4TQh+OJfSXnn6JbvCA2e+EFvPZqJ4OLZds2KCkpgVx+UUhNEER9p0BRyAsih0yu/fukUauW4vXrNzB+0nQ42nfDjGmfCKH6ycg8jAXhP8B32GAMGzJQCCUIor6TtCMVlwsUGPnuUEiee04IfTjqj6UI/D8+uBajpKaWLAAAAABJRU5ErkJggg==;" parent="1" vertex="1">
          <mxGeometry x="191.88" y="180" width="236.23" height="330" as="geometry" />
        </mxCell>
        <mxCell id="1afQDspEj4p5PpRKa2CH-29" value="Create glue job&amp;nbsp; schedule excuting to statistic the data into iceberg everday" style="text;html=1;align=center;verticalAlign=middle;whiteSpace=wrap;rounded=0;" parent="1" vertex="1">
          <mxGeometry x="620" y="615" width="240" height="30" as="geometry" />
        </mxCell>
        <mxCell id="1afQDspEj4p5PpRKa2CH-33" style="edgeStyle=orthogonalEdgeStyle;rounded=0;orthogonalLoop=1;jettySize=auto;html=1;" parent="1" source="1afQDspEj4p5PpRKa2CH-31" target="1afQDspEj4p5PpRKa2CH-32" edge="1">
          <mxGeometry relative="1" as="geometry" />
        </mxCell>
        <mxCell id="1afQDspEj4p5PpRKa2CH-31" value="AWS Glue" style="sketch=0;outlineConnect=0;fontColor=#232F3E;gradientColor=none;strokeColor=#ffffff;fillColor=#232F3E;dashed=0;verticalLabelPosition=middle;verticalAlign=bottom;align=center;html=1;whiteSpace=wrap;fontSize=10;fontStyle=1;spacing=3;shape=mxgraph.aws4.productIcon;prIcon=mxgraph.aws4.glue;" parent="1" vertex="1">
          <mxGeometry x="960" y="620" width="80" height="100" as="geometry" />
        </mxCell>
        <mxCell id="1afQDspEj4p5PpRKa2CH-32" value="Amazon QuickSight" style="sketch=0;outlineConnect=0;fontColor=#232F3E;gradientColor=none;strokeColor=#ffffff;fillColor=#232F3E;dashed=0;verticalLabelPosition=middle;verticalAlign=bottom;align=center;html=1;whiteSpace=wrap;fontSize=10;fontStyle=1;spacing=3;shape=mxgraph.aws4.productIcon;prIcon=mxgraph.aws4.quicksight;" parent="1" vertex="1">
          <mxGeometry x="960" y="910" width="80" height="110" as="geometry" />
        </mxCell>
        <mxCell id="1afQDspEj4p5PpRKa2CH-34" value="create datasource and graphs to show&amp;nbsp;" style="text;html=1;align=center;verticalAlign=middle;whiteSpace=wrap;rounded=0;" parent="1" vertex="1">
          <mxGeometry x="1060" y="730" width="60" height="150" as="geometry" />
        </mxCell>
        <mxCell id="1afQDspEj4p5PpRKa2CH-36" value="Solution 3:" style="text;html=1;align=center;verticalAlign=middle;whiteSpace=wrap;rounded=0;" parent="1" vertex="1">
          <mxGeometry x="70" y="1100" width="60" height="30" as="geometry" />
        </mxCell>
        <mxCell id="1afQDspEj4p5PpRKa2CH-40" style="edgeStyle=orthogonalEdgeStyle;rounded=0;orthogonalLoop=1;jettySize=auto;html=1;" parent="1" source="1afQDspEj4p5PpRKa2CH-37" target="1afQDspEj4p5PpRKa2CH-39" edge="1">
          <mxGeometry relative="1" as="geometry" />
        </mxCell>
        <mxCell id="1afQDspEj4p5PpRKa2CH-37" value="AWS Glue" style="sketch=0;outlineConnect=0;fontColor=#232F3E;gradientColor=none;strokeColor=#ffffff;fillColor=#232F3E;dashed=0;verticalLabelPosition=middle;verticalAlign=bottom;align=center;html=1;whiteSpace=wrap;fontSize=10;fontStyle=1;spacing=3;shape=mxgraph.aws4.productIcon;prIcon=mxgraph.aws4.glue;" parent="1" vertex="1">
          <mxGeometry x="60" y="1275" width="80" height="100" as="geometry" />
        </mxCell>
        <mxCell id="1afQDspEj4p5PpRKa2CH-42" style="edgeStyle=orthogonalEdgeStyle;rounded=0;orthogonalLoop=1;jettySize=auto;html=1;" parent="1" source="1afQDspEj4p5PpRKa2CH-39" target="1afQDspEj4p5PpRKa2CH-43" edge="1">
          <mxGeometry relative="1" as="geometry">
            <mxPoint x="730" y="1325" as="targetPoint" />
          </mxGeometry>
        </mxCell>
        <mxCell id="1afQDspEj4p5PpRKa2CH-39" value="Amazon DynamoDB" style="sketch=0;outlineConnect=0;fontColor=#232F3E;gradientColor=none;strokeColor=#ffffff;fillColor=#232F3E;dashed=0;verticalLabelPosition=middle;verticalAlign=bottom;align=center;html=1;whiteSpace=wrap;fontSize=10;fontStyle=1;spacing=3;shape=mxgraph.aws4.productIcon;prIcon=mxgraph.aws4.dynamodb;" parent="1" vertex="1">
          <mxGeometry x="440" y="1270" width="80" height="110" as="geometry" />
        </mxCell>
        <mxCell id="1afQDspEj4p5PpRKa2CH-41" value="Create glue job&amp;nbsp; to query CloudWatch Metrics Open API schedule excuting to statistic data into dynomoDB everday" style="text;html=1;align=center;verticalAlign=middle;whiteSpace=wrap;rounded=0;" parent="1" vertex="1">
          <mxGeometry x="170" y="1290" width="240" height="30" as="geometry" />
        </mxCell>
        <mxCell id="1afQDspEj4p5PpRKa2CH-43" value="Amazon QuickSight" style="sketch=0;outlineConnect=0;fontColor=#232F3E;gradientColor=none;strokeColor=#ffffff;fillColor=#232F3E;dashed=0;verticalLabelPosition=middle;verticalAlign=bottom;align=center;html=1;whiteSpace=wrap;fontSize=10;fontStyle=1;spacing=3;shape=mxgraph.aws4.productIcon;prIcon=mxgraph.aws4.quicksight;" parent="1" vertex="1">
          <mxGeometry x="750" y="1270" width="80" height="110" as="geometry" />
        </mxCell>
        <mxCell id="1afQDspEj4p5PpRKa2CH-44" value="create datasource and graphs to show&amp;nbsp;" style="text;html=1;align=center;verticalAlign=middle;whiteSpace=wrap;rounded=0;" parent="1" vertex="1">
          <mxGeometry x="590" y="1225" width="130" height="150" as="geometry" />
        </mxCell>
        <mxCell id="vcvFe8b8-K_zg8uP0I7j-1" value="Solution 4:" style="text;html=1;align=center;verticalAlign=middle;whiteSpace=wrap;rounded=0;" vertex="1" parent="1">
          <mxGeometry x="70" y="1480" width="60" height="30" as="geometry" />
        </mxCell>
        <mxCell id="vcvFe8b8-K_zg8uP0I7j-2" value="Amazon CloudWatch" style="sketch=0;outlineConnect=0;fontColor=#232F3E;gradientColor=none;strokeColor=#ffffff;fillColor=#232F3E;dashed=0;verticalLabelPosition=middle;verticalAlign=bottom;align=center;html=1;whiteSpace=wrap;fontSize=10;fontStyle=1;spacing=3;shape=mxgraph.aws4.productIcon;prIcon=mxgraph.aws4.cloudwatch;" vertex="1" parent="1">
          <mxGeometry x="70" y="1600" width="80" height="110" as="geometry" />
        </mxCell>
        <mxCell id="vcvFe8b8-K_zg8uP0I7j-3" value="Statistics registration data in history&amp;nbsp;" style="text;html=1;align=center;verticalAlign=middle;whiteSpace=wrap;rounded=0;" vertex="1" parent="1">
          <mxGeometry x="20" y="1550" width="230" height="30" as="geometry" />
        </mxCell>
        <mxCell id="vcvFe8b8-K_zg8uP0I7j-9" style="edgeStyle=orthogonalEdgeStyle;rounded=0;orthogonalLoop=1;jettySize=auto;html=1;" edge="1" parent="1" source="vcvFe8b8-K_zg8uP0I7j-4" target="vcvFe8b8-K_zg8uP0I7j-7">
          <mxGeometry relative="1" as="geometry" />
        </mxCell>
        <mxCell id="vcvFe8b8-K_zg8uP0I7j-4" value="AWS Lambda" style="sketch=0;outlineConnect=0;fontColor=#232F3E;gradientColor=none;strokeColor=#ffffff;fillColor=#232F3E;dashed=0;verticalLabelPosition=middle;verticalAlign=bottom;align=center;html=1;whiteSpace=wrap;fontSize=10;fontStyle=1;spacing=3;shape=mxgraph.aws4.productIcon;prIcon=mxgraph.aws4.lambda;" vertex="1" parent="1">
          <mxGeometry x="70" y="1790" width="80" height="100" as="geometry" />
        </mxCell>
        <mxCell id="vcvFe8b8-K_zg8uP0I7j-5" value="insert successful record into DynomoDB in APIs" style="text;html=1;align=center;verticalAlign=middle;whiteSpace=wrap;rounded=0;" vertex="1" parent="1">
          <mxGeometry x="191.88" y="1790" width="162" height="30" as="geometry" />
        </mxCell>
        <mxCell id="vcvFe8b8-K_zg8uP0I7j-10" style="edgeStyle=orthogonalEdgeStyle;rounded=0;orthogonalLoop=1;jettySize=auto;html=1;" edge="1" parent="1" source="vcvFe8b8-K_zg8uP0I7j-7" target="vcvFe8b8-K_zg8uP0I7j-8">
          <mxGeometry relative="1" as="geometry" />
        </mxCell>
        <mxCell id="vcvFe8b8-K_zg8uP0I7j-7" value="Amazon DynamoDB" style="sketch=0;outlineConnect=0;fontColor=#232F3E;gradientColor=none;strokeColor=#ffffff;fillColor=#232F3E;dashed=0;verticalLabelPosition=middle;verticalAlign=bottom;align=center;html=1;whiteSpace=wrap;fontSize=10;fontStyle=1;spacing=3;shape=mxgraph.aws4.productIcon;prIcon=mxgraph.aws4.dynamodb;" vertex="1" parent="1">
          <mxGeometry x="440" y="1785" width="80" height="110" as="geometry" />
        </mxCell>
        <mxCell id="vcvFe8b8-K_zg8uP0I7j-8" value="Amazon QuickSight" style="sketch=0;outlineConnect=0;fontColor=#232F3E;gradientColor=none;strokeColor=#ffffff;fillColor=#232F3E;dashed=0;verticalLabelPosition=middle;verticalAlign=bottom;align=center;html=1;whiteSpace=wrap;fontSize=10;fontStyle=1;spacing=3;shape=mxgraph.aws4.productIcon;prIcon=mxgraph.aws4.quicksight;" vertex="1" parent="1">
          <mxGeometry x="750" y="1785" width="80" height="110" as="geometry" />
        </mxCell>
        <mxCell id="vcvFe8b8-K_zg8uP0I7j-11" value="create datasource and graphs to show&amp;nbsp;" style="text;html=1;align=center;verticalAlign=middle;whiteSpace=wrap;rounded=0;" vertex="1" parent="1">
          <mxGeometry x="580" y="1730" width="130" height="150" as="geometry" />
        </mxCell>
      </root>
    </mxGraphModel>
  </diagram>
</mxfile>
